<?xml version="1.0" standalone="no"?>
<!DOCTYPE svg PUBLIC "-//W3C//DTD SVG 20010904//EN"
 "http://www.w3.org/TR/2001/REC-SVG-20010904/DTD/svg10.dtd">
<svg version="1.0" xmlns="http://www.w3.org/2000/svg"
 width="512.000000pt" height="512.000000pt" viewBox="0 0 512.000000 512.000000"
 preserveAspectRatio="xMidYMid meet">
<metadata>
Created by potrace 1.16, written by Peter Selinger 2001-2019
</metadata>
<g transform="translate(0.000000,512.000000) scale(0.100000,-0.100000)"
fill="#000000" stroke="none">
<path d="M45 5108 c29 -95 37 -118 42 -118 3 0 21 9 39 21 41 25 64 56 64 86
0 22 -4 23 -75 23 -55 0 -73 -3 -70 -12z"/>
<path d="M244 5095 c-9 -37 -1 -39 25 -5 21 29 21 30 1 30 -13 0 -22 -9 -26
-25z"/>
<path d="M605 5070 c14 -27 29 -50 33 -50 4 0 17 8 30 18 20 16 21 20 10 50
-11 29 -16 32 -55 32 l-43 0 25 -50z"/>
<path d="M1310 5111 c0 -5 -3 -16 -6 -24 -4 -12 8 -18 49 -27 48 -11 57 -10
81 5 48 32 30 50 -52 53 -41 2 -72 -1 -72 -7z"/>
<path d="M1571 5096 c-11 -20 -10 -28 4 -50 10 -15 18 -25 19 -24 1 2 19 24
40 51 l37 47 -44 0 c-36 0 -46 -4 -56 -24z"/>
<path d="M1677 5061 c-32 -33 -57 -64 -57 -70 0 -26 20 -16 61 32 76 88 82 97
66 97 -8 0 -39 -27 -70 -59z"/>
<path d="M1783 5058 c-73 -92 -120 -166 -213 -333 -45 -82 -89 -160 -97 -172
l-16 -24 44 7 c90 13 274 65 334 94 66 32 111 79 121 127 4 19 -8 66 -35 141
-23 63 -44 138 -47 168 -9 72 -27 71 -91 -8z"/>
<path d="M1981 5103 c7 -10 29 -35 48 -55 l35 -38 12 28 c10 24 8 30 -14 55
-18 19 -35 27 -60 27 -31 0 -33 -2 -21 -17z"/>
<path d="M2110 5110 c18 -12 58 -12 85 0 14 6 3 9 -40 9 -42 1 -56 -2 -45 -9z"/>
<path d="M2295 5095 c45 -28 45 -28 64 -16 28 18 -6 41 -58 41 l-46 -1 40 -24z"/>
<path d="M2516 5078 l-19 -41 24 -18 c13 -10 26 -19 29 -18 3 0 34 26 70 59
l65 59 -75 0 -75 0 -19 -41z"/>
<path d="M2895 5110 c8 -13 65 -13 85 0 11 7 0 10 -38 10 -33 0 -51 -4 -47
-10z"/>
<path d="M3149 5099 c28 -23 64 -22 69 4 3 14 -4 17 -45 17 l-48 -1 24 -20z"/>
<path d="M3277 5113 c-4 -3 -7 -15 -7 -25 0 -15 5 -17 28 -12 52 11 92 26 97
35 7 10 -108 13 -118 2z"/>
<path d="M3526 5085 c14 -19 29 -35 33 -35 3 0 24 16 46 35 l40 34 -73 1 -73
0 27 -35z"/>
<path d="M3891 5080 c12 -21 38 -54 57 -72 l34 -33 -7 55 c-11 90 -11 90 -61
90 l-45 0 22 -40z"/>
<path d="M4055 5108 c11 -7 59 -12 110 -12 51 0 99 5 110 12 16 9 -5 11 -110
11 -105 0 -126 -2 -110 -11z"/>
<path d="M4420 5105 c0 -13 4 -14 20 -5 11 6 20 13 20 15 0 3 -9 5 -20 5 -11
0 -20 -7 -20 -15z"/>
<path d="M4510 5101 c-17 -32 9 -37 38 -7 l27 26 -27 0 c-17 0 -31 -8 -38 -19z"/>
<path d="M4592 5058 c-28 -35 -49 -64 -47 -66 1 -2 25 4 52 13 40 13 55 24 72
55 27 49 27 60 -3 60 -18 0 -38 -17 -74 -62z"/>
<path d="M4731 5065 c-26 -69 -26 -86 -1 -118 14 -17 32 -26 60 -29 22 -2 40
-3 40 -3 0 1 -7 22 -16 48 -9 28 -14 69 -12 102 3 54 2 55 -24 55 -23 0 -29
-7 -47 -55z"/>
<path d="M4854 5086 c-3 -21 0 -56 10 -89 27 -92 107 -157 195 -157 22 0 23 3
17 43 -20 126 -35 139 -101 87 -21 -17 -43 -29 -49 -27 -24 8 -47 67 -47 122
0 61 -15 74 -25 21z"/>
<path d="M4940 5109 c0 -19 20 -48 40 -59 30 -16 60 4 60 40 0 29 -1 30 -50
30 -29 0 -50 -5 -50 -11z"/>
<path d="M382 5085 c-94 -43 -131 -82 -132 -141 0 -35 29 -71 65 -80 34 -8 75
8 181 72 105 63 107 69 44 135 -45 47 -78 50 -158 14z"/>
<path d="M1090 5087 c-139 -42 -401 -199 -365 -219 20 -12 19 -41 -3 -61 -23
-21 -28 -21 -62 3 l-27 19 -23 -24 -23 -24 31 -48 c16 -26 33 -58 37 -70 5
-19 10 -21 25 -13 24 13 67 13 75 0 3 -5 13 -10 21 -10 12 0 11 6 -6 30 -63
88 -14 213 115 295 66 43 181 91 273 115 42 11 77 22 80 25 14 13 -81 2 -148
-18z"/>
<path d="M2672 5038 c-40 -33 -70 -64 -65 -69 4 -4 37 -28 73 -53 56 -39 66
-43 72 -28 9 23 10 212 1 212 -5 0 -41 -28 -81 -62z"/>
<path d="M3692 5074 c-29 -23 -32 -31 -27 -58 18 -91 43 -124 84 -111 43 13
56 123 20 169 -25 32 -36 32 -77 0z"/>
<path d="M4295 5074 c-65 -25 -164 -31 -223 -15 -29 9 -32 8 -32 -12 0 -27 15
-51 26 -44 5 3 54 10 109 17 105 12 195 43 195 66 0 17 -1 17 -75 -12z"/>
<path d="M2831 5075 c-1 -27 33 -144 53 -183 16 -31 17 -32 41 -16 l25 16 -34
38 c-40 45 -55 70 -72 125 -7 22 -13 31 -13 20z"/>
<path d="M3040 5080 c-8 -5 -38 -15 -67 -21 -60 -14 -60 -23 -4 -82 62 -66 65
-65 96 14 22 56 25 72 15 84 -14 17 -20 18 -40 5z"/>
<path d="M3442 5081 c-12 -7 -11 -14 2 -40 17 -31 31 -37 53 -23 9 5 7 16 -9
40 -21 34 -26 36 -46 23z"/>
<path d="M812 5060 c-75 -27 -332 -197 -332 -220 0 -4 11 -15 25 -24 24 -16
26 -15 112 52 49 38 133 99 188 137 55 37 102 69 104 71 12 11 -51 1 -97 -16z"/>
<path d="M1923 5055 c3 -11 8 -33 11 -50 9 -46 69 -205 77 -205 11 0 29 60 29
96 0 25 -13 48 -52 96 -68 84 -71 87 -65 63z"/>
<path d="M4910 5063 c0 -19 22 -63 32 -63 12 0 10 6 -12 42 -11 18 -20 28 -20
21z"/>
<path d="M2160 5041 c-18 -5 -26 -15 -28 -35 -7 -59 66 -101 155 -90 30 3 57
12 60 19 7 21 -15 53 -59 85 -41 30 -75 36 -128 21z"/>
<path d="M2397 5037 l-29 -12 21 -19 c12 -11 31 -35 42 -53 24 -38 39 -41 64
-13 19 21 18 22 -26 65 -41 41 -46 43 -72 32z"/>
<path d="M3321 5030 c-63 -16 -65 -18 -78 -61 -7 -24 -13 -45 -13 -46 -1 -14
163 36 182 55 8 8 -12 73 -22 71 -3 -1 -34 -9 -69 -19z"/>
<path d="M4412 5037 c-6 -7 -14 -33 -18 -57 l-6 -45 31 30 c34 34 45 77 20 83
-9 1 -21 -3 -27 -11z"/>
<path d="M1122 5014 c-171 -50 -297 -137 -323 -222 -21 -73 -5 -99 148 -230
l62 -52 16 24 c9 13 33 69 54 123 155 398 150 384 134 382 -5 0 -45 -11 -91
-25z"/>
<path d="M3120 5013 c-7 -16 -18 -45 -25 -65 -12 -31 -11 -37 2 -42 51 -20 88
8 99 76 5 30 3 35 -20 46 -37 17 -41 16 -56 -15z"/>
<path d="M1440 5010 c-19 -11 -45 -19 -56 -20 -17 0 -28 -15 -52 -75 -36 -89
-34 -92 62 -77 75 12 154 44 162 67 11 27 -5 30 -51 7 -50 -24 -71 -27 -80
-12 -3 5 22 23 55 40 l61 31 -23 29 c-27 34 -32 35 -78 10z"/>
<path d="M3600 5020 c-12 -7 -11 -13 9 -34 29 -31 35 -28 26 13 -7 33 -12 36
-35 21z"/>
<path d="M1310 4990 c-13 -32 -20 -36 -37 -19 -10 10 -22 -11 -38 -67 -7 -26
19 -52 32 -32 14 22 63 141 59 145 -2 2 -9 -10 -16 -27z"/>
<path d="M3870 5013 c0 -57 77 -187 153 -262 l45 -43 62 33 c53 28 61 36 58
58 -2 20 -10 27 -41 33 -62 13 -114 45 -191 118 -71 67 -86 79 -86 63z"/>
<path d="M4288 4993 c-48 -14 -48 -14 -48 -59 0 -50 6 -52 68 -24 33 15 42 24
42 44 0 13 3 31 6 40 7 19 -4 19 -68 -1z"/>
<path d="M5113 4975 c0 -22 2 -30 4 -17 2 12 2 30 0 40 -3 9 -5 -1 -4 -23z"/>
<path d="M1 4930 c0 -45 3 -59 9 -45 12 27 12 77 0 95 -7 10 -10 -5 -9 -50z"/>
<path d="M3485 4959 c-27 -16 -54 -30 -59 -32 -9 -3 31 -175 44 -190 11 -13
180 123 180 146 0 12 -96 107 -107 106 -4 -1 -30 -14 -58 -30z"/>
<path d="M4118 4967 c-32 -6 -58 -14 -58 -18 0 -15 94 -69 120 -69 6 0 10 23
10 50 0 28 -3 49 -7 49 -5 -1 -34 -6 -65 -12z"/>
<path d="M151 4949 c-13 -10 -34 -19 -47 -19 -39 0 -17 -28 47 -60 32 -17 63
-30 69 -30 5 0 1 17 -10 37 -11 21 -20 45 -20 53 0 32 -14 39 -39 19z"/>
<path d="M4666 4957 c3 -10 9 -15 12 -12 3 3 0 11 -7 18 -10 9 -11 8 -5 -6z"/>
<path d="M2536 4919 l-28 -22 40 -41 c22 -22 47 -56 56 -74 l17 -33 32 18 c49
29 46 48 -19 114 -32 33 -61 59 -65 59 -3 0 -19 -10 -33 -21z"/>
<path d="M3840 4930 c0 -17 36 -80 46 -80 4 0 2 6 -4 13 -7 7 -18 29 -26 48
-9 19 -15 27 -16 19z"/>
<path d="M4513 4889 c-24 -17 -43 -34 -43 -38 0 -9 116 -91 129 -91 4 0 22 27
40 59 26 50 29 60 15 65 -23 9 -34 7 -34 -5 0 -24 -33 -79 -47 -79 -12 0 -14
7 -9 28 24 106 20 111 -51 61z"/>
<path d="M3270 4875 l-85 -22 -12 -74 c-17 -106 -16 -138 4 -146 24 -10 131
11 191 37 51 22 53 24 47 54 -24 126 -38 176 -48 175 -7 -1 -50 -12 -97 -24z"/>
<path d="M2969 4854 l-22 -24 24 -19 c13 -10 44 -53 69 -95 25 -41 48 -76 51
-76 3 0 9 39 12 88 3 48 8 95 12 105 6 13 2 17 -18 17 -13 0 -43 6 -65 14 -38
14 -41 13 -63 -10z"/>
<path d="M4300 4848 c-30 -16 -57 -34 -59 -40 -2 -6 18 1 45 17 103 59 112 75
14 23z"/>
<path d="M2323 4841 c-62 -26 -79 -41 -47 -41 16 0 124 57 124 66 0 7 -12 3
-77 -25z"/>
<path d="M3788 4834 l-26 -36 52 -51 c29 -29 63 -66 77 -84 24 -31 24 -31 62
-16 l37 15 -62 67 c-35 37 -72 83 -83 104 -11 20 -22 37 -26 37 -3 0 -17 -16
-31 -36z"/>
<path d="M3650 4804 c-30 -30 -79 -74 -109 -97 -29 -23 -48 -43 -42 -45 18 -6
128 66 189 124 47 44 54 55 42 64 -22 14 -21 15 -80 -46z"/>
<path d="M4677 4799 l-35 -58 22 -14 c12 -8 73 -41 136 -72 110 -55 249 -131
298 -163 l22 -14 0 88 0 89 -43 24 c-23 13 -115 58 -204 101 l-161 78 -35 -59z"/>
<path d="M2774 4840 c-45 -17 -36 -70 12 -70 22 0 44 25 44 49 0 17 -33 29
-56 21z"/>
<path d="M1190 4800 c-7 -17 -11 -33 -8 -35 9 -9 50 43 43 54 -11 18 -22 12
-35 -19z"/>
<path d="M1475 4810 c-33 -10 -91 -25 -129 -34 -68 -16 -156 -58 -156 -75 0
-5 8 -19 18 -32 18 -22 21 -22 81 -9 34 7 90 26 124 42 63 30 137 92 137 115
0 16 1 16 -75 -7z"/>
<path d="M4330 4781 l-85 -47 0 -111 c0 -63 4 -117 10 -122 7 -7 25 -5 55 5
25 9 58 13 76 9 30 -5 34 -2 65 47 18 29 50 76 71 105 21 29 38 56 37 60 0 4
-22 25 -49 45 -32 24 -55 35 -68 31 -13 -3 -21 1 -24 10 -2 12 -22 5 -88 -32z"/>
<path d="M0 4785 l0 -36 30 23 c31 23 30 31 -7 43 -21 6 -23 3 -23 -30z"/>
<path d="M2106 4805 c-23 -24 -20 -52 9 -71 23 -15 27 -15 51 0 20 14 25 24
22 49 -3 28 -7 32 -34 35 -19 2 -38 -3 -48 -13z"/>
<path d="M2310 4756 c-101 -51 -125 -67 -124 -84 0 -11 22 -56 48 -99 l48 -79
77 11 c92 13 135 36 176 94 25 36 30 52 30 103 0 55 -3 62 -33 89 -47 42 -78
38 -222 -35z"/>
<path d="M3941 4772 c19 -22 43 -45 54 -52 11 -7 -2 11 -30 39 -58 60 -72 67
-24 13z"/>
<path d="M381 4774 l-43 -26 28 -24 c16 -13 32 -23 36 -24 4 0 28 13 54 29
l46 30 -33 20 c-19 12 -36 21 -39 21 -3 0 -25 -12 -49 -26z"/>
<path d="M2907 4782 c-9 -10 -17 -23 -16 -28 0 -10 129 -119 129 -109 0 18
-53 114 -73 133 -23 22 -24 22 -40 4z"/>
<path d="M5081 4789 c-14 -5 -39 -7 -55 -4 -25 5 -21 0 27 -29 32 -20 60 -36
63 -36 2 0 4 18 4 40 0 43 -2 44 -39 29z"/>
<path d="M160 4786 c0 -2 18 -15 39 -29 60 -40 93 -103 92 -178 0 -80 -28
-136 -106 -216 -51 -53 -69 -64 -122 -79 -35 -10 -63 -21 -63 -26 0 -11 36 -2
138 35 132 47 190 122 200 258 8 109 -38 181 -141 224 -20 8 -37 14 -37 11z"/>
<path d="M51 4716 l-43 -44 36 -27 c19 -15 70 -42 113 -61 l78 -34 3 40 c2 28
-4 53 -19 80 -23 41 -83 90 -110 90 -8 0 -34 -20 -58 -44z"/>
<path d="M3678 4722 c-25 -21 -78 -55 -117 -76 l-71 -37 0 -55 0 -56 33 7 c42
9 229 71 289 97 47 20 47 20 33 48 -13 25 -102 110 -115 110 -3 0 -26 -17 -52
-38z"/>
<path d="M2000 4708 c-44 -55 -43 -61 4 -28 38 26 45 34 35 46 -6 8 -12 14
-13 13 0 0 -12 -14 -26 -31z"/>
<path d="M493 4696 c-39 -34 -40 -37 -46 -113 -9 -107 -48 -184 -118 -237 -70
-52 -149 -93 -218 -112 -89 -24 -83 -21 -70 -46 6 -13 13 -24 14 -26 5 -7 181
31 226 48 116 46 195 130 270 285 49 102 58 158 30 203 -12 17 -27 32 -34 32
-7 0 -32 -16 -54 -34z"/>
<path d="M2685 4688 c11 -43 12 -96 3 -129 -7 -24 -4 -28 32 -43 41 -16 95
-12 84 6 -3 5 -9 51 -13 101 l-6 92 -54 3 -54 3 8 -33z"/>
<path d="M4146 4694 l-28 -16 33 -34 c18 -19 34 -34 36 -34 2 0 3 23 3 50 0
55 -2 56 -44 34z"/>
<path d="M2617 4660 c-3 -23 -17 -65 -31 -92 -14 -27 -26 -52 -26 -54 0 -12
32 -1 55 19 34 28 45 100 23 142 l-15 28 -6 -43z"/>
<path d="M4585 4663 l-24 -36 29 -33 c15 -18 33 -40 38 -49 8 -15 12 -14 37 9
52 48 120 44 187 -12 35 -30 61 -80 78 -150 13 -58 30 -72 84 -72 31 0 38 4
50 34 8 19 24 40 37 46 21 12 19 14 -40 52 -56 35 -162 94 -373 206 l-78 41
-25 -36z"/>
<path d="M2840 4631 c0 -32 3 -72 6 -89 5 -27 11 -31 53 -37 25 -3 57 -9 70
-12 23 -6 24 -5 16 43 -4 27 -11 56 -15 64 -8 16 -110 90 -123 90 -4 0 -7 -26
-7 -59z"/>
<path d="M382 4650 c0 -14 2 -19 5 -12 2 6 2 18 0 25 -3 6 -5 1 -5 -13z"/>
<path d="M1130 4643 c0 -18 4 -33 9 -33 18 0 19 15 5 40 l-13 25 -1 -32z"/>
<path d="M1417 4632 c-44 -23 -47 -26 -34 -45 8 -12 19 -23 25 -25 10 -3 69
85 61 92 -2 2 -25 -8 -52 -22z"/>
<path d="M2053 4631 c-79 -43 -149 -98 -188 -145 -39 -48 -74 -120 -75 -154 0
-57 66 -121 111 -107 10 4 66 48 122 98 57 51 128 105 158 121 30 16 55 30 57
31 7 5 -111 185 -121 185 -7 0 -36 -13 -64 -29z"/>
<path d="M4085 4618 c4 -18 17 -58 30 -88 17 -43 26 -54 41 -52 47 8 41 33
-30 129 -37 51 -50 54 -41 11z"/>
<path d="M697 4607 c-8 -7 -22 -37 -31 -68 -8 -30 -30 -82 -47 -115 -24 -44
-27 -55 -12 -41 11 10 36 17 59 17 21 0 70 7 109 15 38 8 80 15 91 15 13 0 32
14 48 35 l27 34 -41 30 c-23 17 -63 37 -88 46 -26 9 -59 22 -74 30 -20 10 -30
11 -41 2z"/>
<path d="M3320 4595 c-47 -13 -95 -24 -108 -24 -19 -1 -21 -4 -12 -21 21 -39
81 -70 135 -70 91 0 95 3 95 76 0 45 -4 64 -12 63 -7 -1 -51 -12 -98 -24z"/>
<path d="M3941 4590 l-65 -28 61 -30 c33 -17 74 -43 92 -57 37 -32 38 -26 15
76 -9 38 -21 69 -27 68 -7 0 -41 -13 -76 -29z"/>
<path d="M0 4550 c0 -53 2 -60 20 -60 13 0 25 12 35 37 15 36 15 37 -12 60
-15 12 -31 22 -35 23 -5 0 -8 -27 -8 -60z"/>
<path d="M391 4584 c0 -11 3 -14 6 -6 3 7 2 16 -1 19 -3 4 -6 -2 -5 -13z"/>
<path d="M1181 4576 c-40 -12 -77 -30 -82 -38 -8 -14 -1 -18 46 -23 64 -8 181
-3 192 9 7 7 -63 77 -76 75 -3 0 -39 -10 -80 -23z"/>
<path d="M3116 4565 c4 -9 16 -21 28 -27 19 -10 19 -9 -3 16 -28 30 -33 32
-25 11z"/>
<path d="M1804 4560 c-18 -7 -199 -53 -260 -65 -14 -3 -27 -20 -39 -50 -9 -26
-16 -48 -14 -49 2 -2 41 -22 86 -45 l82 -40 48 67 c63 86 118 164 127 180 8
14 0 14 -30 2z"/>
<path d="M4476 4488 c-27 -46 -63 -108 -81 -138 -36 -60 -35 -77 11 -106 32
-21 38 -14 19 22 -24 46 -19 82 15 116 28 28 36 30 78 25 67 -7 95 -42 90
-114 -2 -43 0 -53 12 -51 25 5 25 114 1 179 -20 51 -80 149 -92 149 -3 0 -27
-37 -53 -82z"/>
<path d="M3030 4521 c0 -25 6 -34 26 -41 73 -28 86 9 16 48 l-42 23 0 -30z"/>
<path d="M86 4498 c-15 -41 -15 -44 1 -56 41 -30 65 -27 100 11 18 20 33 40
33 45 0 7 -88 42 -107 42 -6 0 -17 -19 -27 -42z"/>
<path d="M382 4520 c0 -14 2 -19 5 -12 2 6 2 18 0 25 -3 6 -5 1 -5 -13z"/>
<path d="M4712 4497 c-26 -28 -27 -57 -3 -117 17 -41 22 -46 62 -53 24 -4 59
-5 78 -2 l33 6 -7 47 c-10 70 -30 109 -64 126 -42 22 -74 20 -99 -7z"/>
<path d="M3760 4486 l-45 -24 -3 -81 c-2 -45 1 -81 6 -81 5 0 60 24 123 54 63
30 126 57 142 61 15 4 27 10 27 14 0 10 -70 52 -112 67 -57 20 -87 18 -138
-10z"/>
<path d="M1445 4475 c-5 -2 -22 -6 -37 -9 -35 -8 -35 -19 -1 -35 23 -11 29
-10 40 5 11 15 18 46 11 43 -2 0 -7 -2 -13 -4z"/>
<path d="M2609 4451 c-35 -28 -30 -87 10 -123 43 -38 82 -37 115 3 36 43 31
92 -13 126 -24 19 -86 16 -112 -6z"/>
<path d="M3199 4450 c13 -11 28 -20 35 -20 6 1 0 10 -13 20 -13 11 -28 20 -35
20 -6 -1 0 -10 13 -20z"/>
<path d="M3566 4454 c-50 -18 -62 -28 -92 -80 -36 -61 -45 -99 -29 -120 12
-17 16 -17 91 1 42 11 83 26 91 33 9 9 13 41 13 98 0 94 -1 95 -74 68z"/>
<path d="M1145 4388 c-25 -48 -32 -70 -23 -72 7 -3 34 -11 60 -19 26 -9 50
-12 52 -8 4 6 66 164 66 166 0 0 -27 0 -60 1 l-59 0 -36 -68z"/>
<path d="M0 4423 c1 -18 10 -34 26 -47 26 -19 26 -19 19 4 -4 12 -8 29 -9 37
-2 9 -10 19 -19 25 -14 7 -17 4 -17 -19z"/>
<path d="M956 4419 c-30 -35 -32 -56 -10 -87 11 -15 25 -22 50 -22 67 0 99 73
51 118 -32 30 -61 27 -91 -9z"/>
<path d="M2308 4431 c-92 -30 -193 -102 -224 -162 -17 -34 -18 -89 -2 -124 12
-28 34 -35 23 -7 -4 9 -10 38 -12 63 -5 44 -3 50 38 94 81 88 196 135 330 135
46 0 79 4 79 10 0 17 -169 11 -232 -9z"/>
<path d="M2795 4426 c10 -14 27 -28 39 -30 107 -21 140 -31 186 -59 72 -44
111 -112 118 -208 2 -38 8 -69 11 -69 4 0 17 7 29 16 27 19 30 75 7 151 -39
132 -145 201 -339 220 l-68 6 17 -27z"/>
<path d="M4338 4434 c-49 -15 -57 -24 -35 -42 9 -7 23 -1 51 24 22 19 37 34
35 33 -2 0 -25 -7 -51 -15z"/>
<path d="M1096 4427 c3 -10 9 -15 12 -12 3 3 0 11 -7 18 -10 9 -11 8 -5 -6z"/>
<path d="M3362 4433 c-13 -3 -22 -8 -20 -11 2 -4 12 -25 22 -47 l19 -40 13 30
c7 17 13 40 14 53 0 22 -4 23 -48 15z"/>
<path d="M4178 4433 c-10 -2 -18 -9 -18 -15 0 -10 88 -148 95 -148 2 0 13 14
25 30 l22 30 -37 55 c-35 53 -46 59 -87 48z"/>
<path d="M522 4356 c-23 -36 -64 -83 -90 -107 -26 -23 -37 -37 -25 -31 29 16
114 112 142 162 33 60 21 48 -27 -24z"/>
<path d="M75 4400 c3 -5 11 -10 16 -10 6 0 7 5 4 10 -3 6 -11 10 -16 10 -6 0
-7 -4 -4 -10z"/>
<path d="M1314 4329 l-28 -71 24 -20 24 -20 19 24 c21 25 67 112 67 126 0 7
-56 32 -72 32 -4 0 -19 -32 -34 -71z"/>
<path d="M3161 4353 c60 -67 82 -114 87 -185 5 -60 7 -64 31 -49 10 6 12 24 9
64 -5 67 -48 131 -123 185 l-50 37 46 -52z"/>
<path d="M3262 4343 c42 -45 61 -74 73 -115 8 -30 12 -63 9 -73 -5 -13 -3 -16
7 -13 8 2 15 21 17 41 5 61 -47 140 -131 198 -23 16 -16 6 25 -38z"/>
<path d="M810 4369 c-22 -18 -22 -19 -3 -10 12 6 25 16 28 21 9 15 3 12 -25
-11z"/>
<path d="M2534 4360 c2 -19 6 -43 8 -54 2 -14 -18 -31 -82 -70 -47 -28 -113
-75 -148 -103 -57 -48 -110 -73 -154 -73 -10 0 -18 -4 -18 -10 0 -18 53 -11
106 14 28 13 76 46 105 73 64 58 107 84 174 108 65 24 72 31 52 53 -9 10 -24
36 -32 58 l-15 39 4 -35z"/>
<path d="M2390 4368 c-53 -11 -71 -25 -46 -34 9 -3 36 1 59 10 56 21 67 20 67
-5 0 -11 5 -17 10 -14 6 3 10 17 10 31 0 27 -19 30 -100 12z"/>
<path d="M3988 4365 c-53 -19 -220 -101 -243 -119 -19 -15 -19 -16 27 -62 l47
-48 53 13 c83 21 155 59 188 99 33 41 38 76 14 110 -17 25 -33 26 -86 7z"/>
<path d="M4128 4325 c3 -31 0 -52 -12 -70 -24 -37 -13 -30 19 11 24 32 26 38
15 65 -19 45 -28 43 -22 -6z"/>
<path d="M650 4345 c-25 -7 -36 -13 -25 -13 11 0 38 5 60 13 52 17 24 17 -35
0z"/>
<path d="M1437 4288 c-19 -40 -51 -90 -72 -110 -20 -20 -34 -42 -30 -47 12
-21 87 -53 110 -47 12 3 59 45 105 92 l83 87 -22 16 c-12 10 -49 32 -81 49
l-58 32 -35 -72z"/>
<path d="M4465 4344 c-34 -35 6 -104 60 -104 35 0 45 13 45 59 0 53 -68 81
-105 45z"/>
<path d="M570 4341 c0 -10 19 -25 25 -20 1 2 -3 10 -11 17 -8 7 -14 8 -14 3z"/>
<path d="M831 4326 c-13 -14 -19 -29 -15 -39 7 -20 9 -20 35 -7 19 11 27 54
10 64 -4 3 -18 -5 -30 -18z"/>
<path d="M2857 4294 c51 -113 33 -198 -73 -335 -25 -33 -45 -61 -43 -63 6 -4
295 119 324 138 23 15 25 23 25 84 0 138 -59 198 -222 227 l-38 7 27 -58z"/>
<path d="M2286 4310 c4 -14 7 -41 6 -60 0 -28 1 -31 8 -15 13 31 11 59 -6 81
-14 18 -15 18 -8 -6z"/>
<path d="M2761 4289 c-13 -16 -37 -33 -54 -36 l-30 -6 39 -20 c109 -55 112
-117 12 -252 -29 -39 -29 -39 11 5 82 89 111 204 77 295 -10 25 -21 45 -24 44
-4 0 -18 -14 -31 -30z"/>
<path d="M530 4278 c-12 -16 -20 -32 -17 -35 6 -5 116 24 166 44 46 20 36 23
-32 10 -43 -8 -64 -8 -77 0 -14 10 -21 6 -40 -19z"/>
<path d="M2177 4272 c-55 -56 -47 -82 23 -82 42 0 64 53 44 104 -10 25 -27 19
-67 -22z"/>
<path d="M2368 4276 c-10 -7 -18 -16 -18 -20 0 -12 18 -6 41 14 28 22 6 28
-23 6z"/>
<path d="M4690 4276 c0 -9 7 -16 16 -16 17 0 14 22 -4 28 -7 2 -12 -3 -12 -12z"/>
<path d="M1696 4272 c-3 -4 11 -17 30 -27 45 -24 67 -66 62 -120 l-3 -42 33
15 c17 9 32 20 32 26 0 18 -32 60 -82 110 -46 45 -62 54 -72 38z"/>
<path d="M5050 4268 c-232 -39 -385 -69 -394 -78 -15 -15 15 -13 151 10 140
24 294 60 308 72 10 9 11 9 -65 -4z"/>
<path d="M692 4239 c-40 -17 -101 -36 -135 -44 -34 -8 -80 -18 -102 -24 l-40
-9 45 -1 c58 -1 175 31 251 69 32 17 59 32 59 35 0 6 7 9 -78 -26z"/>
<path d="M1002 4258 c6 -18 28 -21 28 -4 0 9 -7 16 -16 16 -9 0 -14 -5 -12
-12z"/>
<path d="M1081 4226 c-6 -25 -11 -60 -11 -78 0 -31 3 -34 54 -49 l55 -16 15
66 c8 36 17 73 21 82 5 13 -4 19 -39 28 -75 19 -82 16 -95 -33z"/>
<path d="M4168 4225 c-35 -34 -58 -96 -58 -155 0 -26 3 -25 53 11 32 23 46 42
59 82 15 46 15 55 2 75 -8 12 -16 22 -17 22 -1 0 -19 -16 -39 -35z"/>
<path d="M4299 4238 c-10 -23 -7 -33 25 -86 54 -89 92 -111 50 -30 -15 30 -15
32 2 45 17 13 16 16 -23 55 l-42 42 -12 -26z"/>
<path d="M874 4239 c-4 -7 -1 -15 7 -20 8 -4 36 -23 63 -43 27 -19 53 -33 58
-30 15 9 -4 58 -31 81 -28 24 -85 31 -97 12z"/>
<path d="M1633 4202 c-40 -43 -55 -79 -43 -102 13 -25 42 -40 75 -40 31 0 85
49 85 77 -1 31 -26 65 -59 79 -31 13 -34 12 -58 -14z"/>
<path d="M3503 4207 c-39 -15 -58 -32 -23 -22 30 9 79 34 65 34 -5 0 -24 -6
-42 -12z"/>
<path d="M4071 4194 c-11 -14 -17 -32 -14 -41 5 -14 8 -12 16 8 5 13 13 32 18
42 13 25 4 21 -20 -9z"/>
<path d="M5015 4200 c-22 -10 -94 -28 -160 -40 -66 -12 -126 -23 -132 -25 -9
-3 1 -25 27 -67 22 -34 42 -64 45 -66 2 -2 41 25 87 62 82 65 187 157 178 155
-3 0 -23 -9 -45 -19z"/>
<path d="M1256 4141 c-22 -94 -21 -199 1 -223 15 -17 15 -19 -2 -38 -20 -22
-21 -21 57 -39 67 -16 77 -14 43 8 -35 21 -68 66 -63 87 3 12 7 12 30 0 15 -8
30 -11 33 -6 3 5 -7 16 -23 24 -41 21 -86 76 -73 89 6 6 29 -1 65 -22 35 -19
56 -26 56 -19 0 23 -15 35 -51 42 -19 3 -44 12 -54 20 -18 13 -18 15 -1 62 22
63 24 76 9 81 -7 3 -17 -22 -27 -66z"/>
<path d="M770 4191 c0 -25 170 -186 263 -249 124 -84 133 -87 148 -61 27 50
-16 90 -196 182 -49 26 -113 67 -142 92 -50 44 -73 55 -73 36z"/>
<path d="M1907 4182 c-26 -28 -22 -52 4 -25 12 11 20 26 17 33 -2 7 -9 5 -21
-8z"/>
<path d="M2525 4183 c-30 -15 -137 -133 -143 -157 -3 -14 35 -66 48 -66 4 0
36 44 71 98 34 53 69 107 77 120 13 20 13 22 -4 21 -11 0 -32 -7 -49 -16z"/>
<path d="M3600 4190 c-8 -5 -62 -28 -120 -51 -120 -48 -138 -60 -117 -77 11
-9 40 1 138 51 67 34 125 68 127 75 4 14 -7 15 -28 2z"/>
<path d="M2623 4168 c-17 -21 -143 -226 -143 -231 0 -11 60 -18 95 -11 43 8
136 88 155 134 16 40 2 73 -42 100 -38 23 -52 25 -65 8z"/>
<path d="M4540 4166 c-77 -21 -105 -38 -108 -69 -7 -59 75 -120 225 -168 83
-26 117 -20 102 18 -8 22 -9 22 -38 6 -28 -16 -32 -16 -65 0 -71 33 -94 112
-56 187 24 46 19 48 -60 26z"/>
<path d="M675 4158 c-16 -6 -31 -12 -33 -13 -6 -5 18 -53 47 -93 l31 -42 40
26 c38 26 40 28 25 48 -8 12 -25 36 -38 53 -24 36 -27 37 -72 21z"/>
<path d="M2410 4138 l-23 -33 28 27 c16 15 26 30 23 33 -3 4 -16 -9 -28 -27z"/>
<path d="M5075 4150 c-10 -11 -16 -21 -14 -23 2 -2 17 -11 32 -21 l28 -17 -3
37 c-4 44 -18 52 -43 24z"/>
<path d="M254 4144 c3 -9 6 -22 6 -30 0 -18 10 -17 34 1 16 12 17 17 6 30 -17
21 -54 20 -46 -1z"/>
<path d="M3643 4134 c-47 -28 -51 -40 -28 -85 16 -29 16 -29 48 -13 68 35 86
74 49 107 -23 21 -18 21 -69 -9z"/>
<path d="M1936 4131 c-22 -24 -11 -49 37 -85 27 -21 105 -56 123 -56 2 0 4 15
4 33 0 28 -6 36 -53 64 -30 18 -60 39 -67 48 -16 20 -23 19 -44 -4z"/>
<path d="M2154 4134 c24 -17 70 -18 84 -1 8 9 -3 12 -46 14 -52 1 -55 0 -38
-13z"/>
<path d="M138 4127 l-56 -9 15 -45 c14 -42 18 -45 44 -39 65 13 95 53 67 87
-11 12 -23 14 -70 6z"/>
<path d="M0 4098 c0 -27 4 -38 15 -38 19 0 19 30 0 56 -13 18 -14 17 -15 -18z"/>
<path d="M3887 4101 c-122 -44 -149 -82 -75 -102 105 -28 152 -69 183 -164 12
-35 25 -62 29 -58 3 3 6 51 6 105 0 78 -3 100 -15 104 -21 8 -19 21 5 29 15 5
20 15 20 45 0 43 -21 70 -53 69 -12 0 -57 -13 -100 -28z"/>
<path d="M4258 4091 c-2 -23 -1 -44 2 -45 3 -1 19 0 37 3 l31 6 -33 39 -33 39
-4 -42z"/>
<path d="M475 4095 c14 -13 25 -35 25 -49 0 -46 10 -56 54 -56 22 0 56 -4 74
-9 43 -13 41 -1 -11 54 -36 37 -50 45 -80 45 -26 0 -39 6 -47 20 -6 11 -17 20
-25 20 -9 0 -6 -8 10 -25z"/>
<path d="M4630 4105 c-13 -16 1 -76 23 -93 17 -14 77 -20 77 -9 0 19 -51 97
-69 107 -14 7 -22 6 -31 -5z"/>
<path d="M1521 4091 c-27 -49 73 -121 195 -140 70 -11 125 -2 163 27 32 24 37
46 17 76 l-15 23 -96 -33 c-53 -19 -110 -34 -127 -34 -41 0 -82 26 -106 68
-19 34 -20 34 -31 13z"/>
<path d="M4935 4040 c-44 -34 -89 -70 -100 -81 -19 -20 -18 -19 35 2 65 26
205 69 229 69 18 1 -54 70 -73 70 -6 0 -47 -27 -91 -60z"/>
<path d="M330 4083 c-8 -3 -44 -24 -79 -47 l-65 -40 35 -14 c47 -19 67 -39 96
-95 13 -27 26 -47 28 -45 39 39 115 149 115 165 0 50 -80 97 -130 76z"/>
<path d="M3521 4062 c-43 -21 -47 -33 -23 -62 17 -21 21 -22 55 -11 20 7 37
17 37 22 0 10 -29 69 -33 69 -1 -1 -17 -9 -36 -18z"/>
<path d="M4185 4060 c-3 -5 -1 -10 4 -10 6 0 11 5 11 10 0 6 -2 10 -4 10 -3 0
-8 -4 -11 -10z"/>
<path d="M3210 4035 c-30 -13 -138 -59 -240 -100 -202 -83 -259 -115 -110 -61
234 84 463 187 413 186 -5 0 -33 -11 -63 -25z"/>
<path d="M782 3999 c-33 -25 -52 -47 -52 -60 0 -12 20 -43 44 -71 24 -28 61
-80 82 -115 21 -36 43 -67 50 -70 18 -7 91 42 151 100 l52 50 -87 58 c-48 33
-110 79 -137 103 l-51 45 -52 -40z"/>
<path d="M1438 4003 c-32 -35 -54 -78 -62 -123 l-6 -35 15 38 c8 21 27 57 43
80 52 77 54 87 10 40z"/>
<path d="M2267 4014 c-15 -8 -50 -18 -77 -21 -49 -6 -50 -6 -50 -40 0 -77 48
-133 127 -148 43 -8 71 9 111 67 l29 43 -52 58 c-29 31 -54 57 -56 57 -2 -1
-17 -8 -32 -16z"/>
<path d="M3378 4016 l-38 -11 33 -50 c32 -50 51 -62 75 -47 11 7 11 18 0 62
-8 30 -18 55 -23 56 -6 1 -27 -3 -47 -10z"/>
<path d="M4386 3998 c9 -32 32 -76 42 -82 5 -3 15 6 23 21 13 24 12 27 -21 54
-41 35 -54 37 -44 7z"/>
<path d="M17 3999 c-12 -7 -17 -23 -17 -59 0 -42 3 -50 19 -50 33 0 41 21 28
72 -10 40 -14 45 -30 37z"/>
<path d="M4103 3998 c-26 -33 -26 -137 1 -173 8 -12 11 7 11 85 0 55 -1 100
-1 100 -1 0 -6 -6 -11 -12z"/>
<path d="M4159 3955 c-10 -45 -10 -61 2 -91 19 -50 45 -60 33 -13 -5 19 -8 62
-8 97 1 34 -2 62 -7 62 -4 0 -13 -25 -20 -55z"/>
<path d="M4247 3983 c-4 -3 -7 -23 -7 -43 0 -42 21 -69 91 -117 43 -30 46 -31
57 -12 19 30 14 47 -20 76 -18 16 -51 45 -73 65 -23 21 -45 35 -48 31z"/>
<path d="M1520 3954 c0 -74 43 -95 197 -95 98 0 187 17 244 46 28 15 29 16 13
40 -9 14 -19 25 -21 25 -3 0 -20 -13 -39 -30 -41 -35 -82 -44 -180 -38 -59 4
-89 12 -144 40 -69 34 -70 34 -70 12z"/>
<path d="M3200 3960 c-8 -5 -10 -10 -5 -10 6 0 17 5 25 10 8 5 11 10 5 10 -5
0 -17 -5 -25 -10z"/>
<path d="M3743 3861 c7 -112 22 -197 38 -207 5 -3 50 18 99 46 84 48 90 54 90
83 0 38 -30 106 -56 128 -23 20 -86 44 -138 53 l-39 7 6 -110z"/>
<path d="M4985 3935 c-66 -18 -133 -38 -150 -45 l-30 -11 25 -19 c13 -10 52
-33 86 -51 l62 -33 46 42 c25 23 57 48 71 54 21 9 25 18 25 55 0 23 -3 43 -7
42 -5 0 -62 -15 -128 -34z"/>
<path d="M3556 3939 c-30 -24 -33 -52 -9 -110 16 -42 57 -69 103 -69 25 0 25
10 4 118 -16 79 -18 82 -44 82 -15 0 -39 -9 -54 -21z"/>
<path d="M462 3908 c-16 -24 -31 -47 -34 -53 -4 -6 16 -10 51 -10 48 0 64 -5
94 -28 52 -39 86 -88 113 -160 41 -111 25 -32 -20 100 -25 70 -47 140 -50 154
-6 29 -28 39 -88 39 -32 0 -41 -5 -66 -42z"/>
<path d="M3250 3925 c-44 -18 -56 -28 -58 -49 -4 -31 4 -32 93 -10 68 17 78
31 51 67 -16 21 -18 21 -86 -8z"/>
<path d="M141 3909 c-23 -25 -27 -60 -10 -108 13 -36 35 -51 76 -51 68 0 94
75 50 141 -29 44 -84 52 -116 18z"/>
<path d="M4493 3903 c-11 -15 -32 -50 -47 -76 -33 -58 -37 -58 109 7 l95 43
-52 21 c-29 11 -60 23 -69 27 -12 4 -23 -3 -36 -22z"/>
<path d="M3075 3904 c-16 -8 -50 -23 -75 -34 -25 -11 -34 -17 -20 -14 31 8
149 62 135 63 -5 0 -23 -7 -40 -15z"/>
<path d="M2095 3880 c31 -61 124 -144 141 -127 3 2 -8 10 -25 16 -38 16 -76
57 -96 104 -8 20 -20 37 -25 37 -6 0 -4 -13 5 -30z"/>
<path d="M1444 3870 c15 -83 96 -156 221 -197 71 -24 96 -27 220 -27 121 -1
291 18 364 40 7 2 -13 17 -44 33 l-58 29 -76 -20 c-100 -26 -286 -28 -385 -4
-134 32 -193 69 -228 141 l-19 40 5 -35z"/>
<path d="M2630 3873 c-19 -14 -77 -45 -127 -70 -92 -44 -105 -58 -85 -91 14
-21 138 28 229 89 39 27 41 31 33 60 -5 18 -11 33 -12 34 -2 2 -19 -8 -38 -22z"/>
<path d="M2421 3846 c-18 -25 -30 -46 -28 -46 2 0 42 18 88 39 77 37 81 40 49
41 -19 0 -45 3 -56 6 -18 5 -28 -3 -53 -40z"/>
<path d="M1955 3855 c-107 -50 -231 -65 -345 -40 -14 3 2 -5 35 -19 80 -32
201 -49 289 -41 81 7 166 24 166 33 0 8 -83 92 -90 91 -3 0 -27 -11 -55 -24z"/>
<path d="M3080 3848 c-216 -101 -280 -134 -280 -145 0 -7 2 -13 4 -13 1 0 54
24 117 54 63 29 140 65 172 79 34 15 57 32 57 41 0 9 -1 16 -2 15 -2 0 -32
-14 -68 -31z"/>
<path d="M4652 3825 c-45 -18 -114 -48 -152 -66 l-70 -32 39 -42 c21 -23 51
-61 66 -84 15 -22 33 -41 40 -41 7 0 59 33 116 73 l104 72 -3 40 c-3 31 -43
117 -55 115 -1 -1 -39 -16 -85 -35z"/>
<path d="M17 3839 c-13 -8 -17 -24 -17 -77 0 -38 5 -73 11 -79 8 -8 7 -17 -2
-34 -11 -22 -11 -23 5 -10 47 39 72 142 47 189 -13 25 -18 26 -44 11z"/>
<path d="M3396 3829 c-22 -5 -42 -11 -44 -13 -2 -3 8 -24 22 -48 47 -80 43
-174 -9 -236 -31 -37 -31 -43 -1 -71 28 -26 43 -21 88 26 52 54 59 89 43 194
-25 164 -26 165 -99 148z"/>
<path d="M5088 3818 c-36 -35 -37 -82 -4 -123 13 -16 27 -27 31 -24 3 4 5 44
3 90 l-3 84 -27 -27z"/>
<path d="M740 3826 c0 -8 81 -210 86 -215 8 -8 34 22 34 39 0 18 -90 163 -109
174 -6 4 -11 5 -11 2z"/>
<path d="M1256 3763 c3 -27 7 -53 9 -59 5 -18 153 -126 164 -120 5 3 12 24 16
46 6 38 4 42 -39 86 -53 53 -59 53 -16 -1 17 -21 30 -44 30 -51 0 -26 -31 -1
-76 62 -40 56 -69 84 -88 84 -3 0 -3 -21 0 -47z"/>
<path d="M4831 3778 c5 -18 9 -35 9 -37 0 -2 9 4 21 15 l21 19 -22 17 c-32 26
-40 22 -29 -14z"/>
<path d="M434 3788 c-84 -40 -58 -256 37 -312 34 -20 111 -21 149 -1 61 31 65
83 15 183 -60 118 -131 165 -201 130z"/>
<path d="M1087 3754 c-31 -28 -47 -50 -45 -62 2 -14 -24 -39 -100 -96 -57 -43
-102 -80 -99 -82 8 -9 140 75 214 136 50 41 75 70 83 95 18 55 0 58 -53 9z"/>
<path d="M3188 3793 c-31 -8 -24 -99 11 -154 34 -53 76 -99 91 -99 6 0 24 29
40 64 35 80 29 119 -28 166 -35 29 -67 35 -114 23z"/>
<path d="M4120 3784 c0 -9 5 -14 12 -12 18 6 21 28 4 28 -9 0 -16 -7 -16 -16z"/>
<path d="M2697 3782 c-4 -5 -36 -27 -72 -48 -36 -21 -65 -41 -65 -45 0 -22 27
-17 88 16 84 46 85 47 69 70 -9 11 -16 14 -20 7z"/>
<path d="M3068 3762 l-48 -17 23 -29 24 -29 26 46 c14 26 25 47 24 46 -1 0
-23 -8 -49 -17z"/>
<path d="M4182 3762 c-12 -21 -8 -28 62 -103 45 -48 87 -104 105 -142 32 -64
56 -184 45 -219 -8 -25 14 -78 32 -78 9 0 14 12 14 34 0 55 -28 201 -51 260
-26 70 -96 164 -148 200 -22 16 -41 38 -43 49 l-3 22 -13 -23z"/>
<path d="M1190 3738 c-1 -40 -38 -111 -55 -104 -9 3 -30 -4 -48 -15 -20 -13
-24 -18 -11 -15 12 4 33 2 48 -4 24 -9 28 -6 52 30 28 42 45 130 25 130 -6 0
-11 -10 -11 -22z"/>
<path d="M1480 3725 c19 -19 36 -35 39 -35 3 0 -10 16 -29 35 -19 19 -36 35
-39 35 -3 0 10 -16 29 -35z"/>
<path d="M4321 3712 c74 -67 125 -164 150 -285 27 -135 39 -248 28 -268 -6
-12 -4 -21 6 -29 8 -6 15 -29 17 -51 3 -38 4 -39 22 -26 16 12 19 27 19 88 0
41 -5 91 -12 112 -14 42 -9 69 12 61 56 -21 61 -300 7 -392 -25 -41 -25 -45
-1 -33 25 14 60 99 72 175 32 193 -83 474 -249 612 -92 76 -146 103 -71 36z"/>
<path d="M2258 3743 c7 -3 16 -2 19 1 4 3 -2 6 -13 5 -11 0 -14 -3 -6 -6z"/>
<path d="M2298 3733 c7 -3 16 -2 19 1 4 3 -2 6 -13 5 -11 0 -14 -3 -6 -6z"/>
<path d="M4860 3704 c-25 -20 -93 -70 -153 -111 l-107 -75 17 -29 c21 -35 48
-37 156 -13 94 22 158 51 235 108 68 50 69 58 20 102 -20 19 -97 54 -116 54
-4 0 -27 -16 -52 -36z"/>
<path d="M107 3676 c-10 -24 -34 -62 -53 -85 -26 -30 -31 -41 -19 -41 29 0 52
18 84 68 34 53 38 74 18 90 -9 8 -17 0 -30 -32z"/>
<path d="M268 3683 c-37 -40 -118 -156 -118 -170 0 -15 62 -69 124 -108 76
-48 88 -39 58 47 -27 79 -36 159 -24 221 5 26 6 47 3 47 -4 0 -23 -17 -43 -37z"/>
<path d="M3578 3713 c6 -2 18 -2 25 0 6 3 1 5 -13 5 -14 0 -19 -2 -12 -5z"/>
<path d="M2663 3666 c-54 -27 -83 -47 -83 -58 0 -30 17 -28 104 13 81 38 86
41 75 62 -7 12 -12 23 -13 23 0 1 -38 -17 -83 -40z"/>
<path d="M2894 3683 c-41 -20 -54 -34 -72 -73 -16 -36 -44 -66 -103 -115 -79
-66 -81 -68 -75 -104 18 -114 18 -149 2 -205 -10 -32 -14 -61 -11 -64 12 -12
80 35 104 72 20 30 24 47 22 95 -1 33 3 69 9 80 6 11 52 54 103 94 84 67 157
153 157 184 0 18 -48 63 -67 62 -10 0 -41 -12 -69 -26z"/>
<path d="M3603 3686 c-29 -14 -29 -46 -3 -104 21 -46 21 -46 78 -5 37 28 40
45 12 91 -21 34 -45 39 -87 18z"/>
<path d="M4015 3671 c-135 -49 -168 -85 -126 -140 l18 -24 107 38 c59 21 109
42 112 47 6 10 -37 90 -51 94 -5 2 -32 -5 -60 -15z"/>
<path d="M1560 3666 c0 -3 9 -10 20 -16 11 -6 20 -8 20 -6 0 3 -9 10 -20 16
-11 6 -20 8 -20 6z"/>
<path d="M1230 3626 c-10 -30 -7 -46 19 -121 40 -113 67 -248 82 -415 6 -74
13 -136 15 -138 4 -5 62 27 69 38 14 22 23 179 14 250 -4 41 -14 127 -20 190
l-12 115 -73 58 c-40 31 -74 57 -77 57 -3 0 -11 -15 -17 -34z"/>
<path d="M2475 3655 c-5 -2 -43 -13 -82 -25 -40 -12 -73 -25 -73 -28 0 -19 25
-82 33 -82 7 0 148 73 165 85 5 4 -21 55 -27 54 -3 0 -10 -2 -16 -4z"/>
<path d="M4181 3634 c37 -40 95 -134 136 -218 32 -66 34 -68 29 -31 -11 80
-110 235 -169 266 -19 10 -19 8 4 -17z"/>
<path d="M1490 3598 c0 -84 108 -518 130 -518 4 0 28 11 53 26 l46 25 -30 50
c-65 111 -119 278 -119 370 0 43 -4 51 -33 73 -19 15 -37 26 -40 26 -4 0 -7
-23 -7 -52z"/>
<path d="M2298 3643 c7 -3 16 -2 19 1 4 3 -2 6 -13 5 -11 0 -14 -3 -6 -6z"/>
<path d="M1610 3635 c0 -6 129 -45 149 -44 9 0 -20 11 -64 24 -93 28 -85 26
-85 20z"/>
<path d="M2248 3633 c7 -3 16 -2 19 1 4 3 -2 6 -13 5 -11 0 -14 -3 -6 -6z"/>
<path d="M771 3620 c0 -8 4 -24 9 -35 5 -13 9 -14 9 -5 0 8 -4 24 -9 35 -5 13
-9 14 -9 5z"/>
<path d="M2193 3623 c9 -2 23 -2 30 0 6 3 -1 5 -18 5 -16 0 -22 -2 -12 -5z"/>
<path d="M2138 3613 c6 -2 18 -2 25 0 6 3 1 5 -13 5 -14 0 -19 -2 -12 -5z"/>
<path d="M2688 3582 c-76 -36 -88 -50 -69 -81 7 -11 24 -1 79 43 110 87 108
94 -10 38z"/>
<path d="M742 3585 c0 -16 2 -22 5 -12 2 9 2 23 0 30 -3 6 -5 -1 -5 -18z"/>
<path d="M1853 3583 c32 -2 81 -2 110 0 29 2 3 3 -58 3 -60 0 -84 -1 -52 -3z"/>
<path d="M5074 3559 c-54 -43 -55 -44 -7 -20 41 20 60 38 51 47 -3 2 -22 -10
-44 -27z"/>
<path d="M1610 3554 c0 -21 18 -44 79 -100 62 -58 88 -91 121 -156 67 -129
116 -201 170 -252 27 -25 54 -46 59 -46 24 0 21 24 -7 53 -40 44 -75 106 -122
222 -23 57 -49 105 -62 114 -12 8 -61 49 -108 92 -47 42 -95 81 -107 88 -21
11 -23 10 -23 -15z"/>
<path d="M3741 3553 l-33 -28 31 -42 c34 -47 54 -52 90 -24 23 17 24 21 11 52
-16 40 -39 69 -54 69 -7 0 -27 -12 -45 -27z"/>
<path d="M2153 3557 c-57 -9 -63 -12 -63 -34 0 -16 5 -23 13 -20 6 3 42 13 80
23 38 11 67 24 67 31 0 14 -8 14 -97 0z"/>
<path d="M2971 3479 c-79 -83 -83 -91 -73 -114 14 -31 55 -48 93 -40 38 9 76
55 84 105 7 43 -2 141 -13 139 -4 -1 -45 -41 -91 -90z"/>
<path d="M3128 3485 c3 -67 0 -91 -17 -130 -11 -26 -18 -51 -15 -56 3 -5 23
-18 45 -29 39 -20 39 -20 77 -1 21 11 61 40 88 65 l49 45 -40 36 c-22 20 -74
62 -115 94 l-75 58 3 -82z"/>
<path d="M2440 3515 c-96 -50 -124 -79 -145 -149 -22 -72 -19 -85 22 -124 51
-48 127 -82 185 -82 39 0 50 4 72 31 24 28 26 39 26 117 0 48 -5 105 -11 127
-19 72 -41 125 -53 125 -6 0 -49 -21 -96 -45z"/>
<path d="M1050 3535 c-14 -8 -69 -33 -123 -56 -53 -23 -95 -44 -93 -46 5 -5
209 85 232 102 24 18 16 18 -16 0z"/>
<path d="M1732 3535 c49 -46 132 -105 146 -105 21 0 164 41 175 50 4 4 3 18
-2 32 l-10 26 -108 -5 c-59 -3 -132 -1 -161 5 -43 8 -51 7 -40 -3z"/>
<path d="M1156 3527 c-17 -12 -18 -18 -7 -48 23 -65 41 -215 41 -335 0 -112 2
-122 19 -127 11 -3 22 1 25 8 15 39 28 189 23 260 -6 84 -52 246 -72 252 -6 2
-19 -3 -29 -10z"/>
<path d="M4050 3503 c-47 -14 -86 -27 -88 -28 -4 -4 19 -95 25 -95 2 0 21 9
43 20 47 24 116 26 167 5 20 -8 38 -14 40 -12 2 2 -12 33 -31 68 -21 40 -41
65 -52 66 -11 1 -57 -10 -104 -24z"/>
<path d="M384 3483 c23 -45 72 -80 141 -98 81 -21 105 -18 30 4 -82 24 -118
44 -155 88 -32 38 -32 38 -16 6z"/>
<path d="M2235 3499 c-22 -5 -59 -16 -83 -25 -36 -14 -42 -19 -36 -37 11 -38
51 -101 83 -131 l31 -30 0 35 c0 29 28 121 54 182 9 19 8 19 -49 6z"/>
<path d="M706 3483 c-4 -12 -18 -38 -31 -57 -13 -20 -20 -36 -15 -36 13 0 63
87 57 102 -2 8 -7 4 -11 -9z"/>
<path d="M3609 3469 c-79 -57 -90 -69 -77 -93 17 -34 60 -76 77 -76 18 0 128
79 135 97 6 14 -62 103 -79 103 -7 0 -32 -14 -56 -31z"/>
<path d="M960 3426 c-174 -80 -329 -171 -415 -244 -82 -68 -89 -82 -43 -82 69
0 387 183 374 216 -7 19 36 64 62 64 11 0 25 -7 32 -15 10 -13 16 -11 44 10
39 29 53 31 78 9 16 -16 18 -16 24 0 7 19 -4 106 -14 105 -4 0 -68 -29 -142
-63z"/>
<path d="M4950 3479 c0 -5 5 -7 10 -4 6 3 10 8 10 11 0 2 -4 4 -10 4 -5 0 -10
-5 -10 -11z"/>
<path d="M100 3463 c1 -37 41 -105 90 -153 28 -28 56 -50 62 -50 15 0 78 49
78 60 0 4 -24 21 -52 38 -29 16 -79 50 -110 76 -63 51 -68 53 -68 29z"/>
<path d="M5091 3461 c-23 -17 -23 -19 -6 -44 25 -39 35 -33 35 18 0 25 -1 45
-2 45 -2 0 -14 -9 -27 -19z"/>
<path d="M7 3463 c-8 -8 -9 -63 -2 -63 3 0 17 7 30 16 33 21 33 54 2 54 -13 0
-27 -3 -30 -7z"/>
<path d="M1465 3376 c4 -90 15 -130 30 -114 3 3 -4 52 -15 109 l-20 104 5 -99z"/>
<path d="M1641 3388 c23 -81 95 -228 113 -228 6 0 21 8 34 18 l23 18 -35 77
c-33 72 -98 157 -137 178 -16 8 -16 4 2 -63z"/>
<path d="M4863 3450 c-26 -11 -28 -19 -12 -54 11 -24 13 -24 40 -10 33 17 32
14 19 48 -10 28 -14 29 -47 16z"/>
<path d="M3454 3424 c-18 -14 -18 -15 4 -4 12 6 22 13 22 15 0 8 -5 6 -26 -11z"/>
<path d="M795 3420 c-3 -6 1 -7 9 -4 18 7 21 14 7 14 -6 0 -13 -4 -16 -10z"/>
<path d="M3884 3415 c-12 -29 20 -190 35 -181 13 8 20 136 9 167 -11 31 -35
38 -44 14z"/>
<path d="M4728 3417 c-56 -8 -68 -13 -68 -28 0 -33 78 -56 130 -37 27 9 31 14
25 37 -3 14 -9 28 -13 32 -4 3 -37 1 -74 -4z"/>
<path d="M1961 3408 c-33 -9 -33 -10 -28 -53 9 -62 64 -199 94 -235 18 -22 33
-30 59 -30 50 0 101 28 120 67 l16 35 -59 61 c-33 34 -77 86 -97 115 -39 54
-47 57 -105 40z"/>
<path d="M4962 3378 c-28 -18 -52 -36 -52 -40 0 -11 56 -38 79 -38 11 0 32 10
47 23 26 23 26 24 10 55 -9 18 -20 32 -24 32 -4 0 -31 -15 -60 -32z"/>
<path d="M4059 3351 c-32 -32 -35 -47 -18 -85 24 -52 101 -57 139 -9 27 34 25
69 -5 98 -34 35 -78 33 -116 -4z"/>
<path d="M3397 3324 l-67 -46 18 -30 c9 -16 28 -40 42 -53 l26 -25 61 40 c89
58 89 59 48 114 -20 25 -42 46 -49 46 -6 0 -42 -21 -79 -46z"/>
<path d="M21 3341 c-13 -10 -22 -24 -20 -30 5 -14 59 23 59 40 0 14 -12 11
-39 -10z"/>
<path d="M1028 3346 c-23 -17 -23 -29 2 -51 17 -15 24 -16 46 -7 l25 12 -21
30 c-24 34 -28 35 -52 16z"/>
<path d="M3770 3323 c-6 -21 -14 -71 -17 -111 l-6 -74 51 32 c29 17 54 36 57
40 7 11 -48 134 -63 144 -7 4 -15 -9 -22 -31z"/>
<path d="M400 3345 c0 -22 159 -62 186 -47 13 7 2 11 -42 17 -33 4 -74 13 -93
21 -35 14 -51 17 -51 9z"/>
<path d="M4270 3293 c0 -119 -53 -188 -165 -218 l-68 -19 31 -27 c67 -60 162
-58 225 5 65 65 75 170 25 253 -18 29 -36 53 -40 53 -4 0 -8 -21 -8 -47z"/>
<path d="M85 3310 c-10 -12 -34 -30 -52 -41 -31 -20 -33 -24 -33 -80 0 -32 2
-59 4 -59 6 0 199 90 204 94 3 4 -95 106 -102 106 -2 0 -11 -9 -21 -20z"/>
<path d="M1110 3316 c0 -9 5 -16 10 -16 6 0 10 4 10 9 0 6 -4 13 -10 16 -5 3
-10 -1 -10 -9z"/>
<path d="M2830 3301 c0 -42 44 -87 94 -97 39 -7 106 8 138 30 16 11 16 15 2
34 -12 18 -19 20 -40 12 -56 -21 -129 -7 -171 32 l-23 21 0 -32z"/>
<path d="M4765 3295 l-60 -23 -7 -123 c-4 -80 -14 -147 -27 -189 -11 -35 -19
-66 -17 -67 5 -6 141 66 168 89 l27 23 -10 90 c-6 49 -9 120 -7 157 2 37 1 68
-2 67 -3 0 -32 -11 -65 -24z"/>
<path d="M933 3286 l-32 -22 25 -31 24 -31 32 30 31 29 -24 24 -24 23 -32 -22z"/>
<path d="M3697 3295 c-16 -11 -17 -17 -7 -35 15 -28 33 -13 28 23 -3 23 -5 24
-21 12z"/>
<path d="M5092 3301 c-10 -6 -9 -10 7 -14 14 -3 21 0 21 9 0 16 -9 18 -28 5z"/>
<path d="M353 3266 c-15 -13 -26 -26 -23 -28 3 -3 31 -14 63 -26 59 -22 59
-22 86 -2 15 10 33 26 40 34 11 13 8 16 -16 22 -15 3 -44 10 -63 15 -50 13
-56 12 -87 -15z"/>
<path d="M3980 3266 c0 -22 3 -27 11 -19 8 8 8 16 0 30 -9 16 -10 14 -11 -11z"/>
<path d="M4860 3273 c0 -23 9 -35 42 -55 23 -15 27 -16 32 -2 10 27 7 34 -26
54 -40 24 -48 25 -48 3z"/>
<path d="M5040 3255 c-7 -8 -19 -15 -27 -15 -31 0 -59 -125 -30 -136 24 -9 67
14 67 35 0 29 15 33 35 11 28 -31 35 -24 35 35 0 50 -2 56 -30 70 -36 18 -35
18 -50 0z"/>
<path d="M3227 3224 c-31 -19 -57 -39 -57 -42 0 -14 125 -192 139 -197 9 -4
11 0 6 12 -26 62 -17 100 29 132 l35 23 -42 54 c-23 30 -44 54 -47 54 -3 0
-31 -16 -63 -36z"/>
<path d="M3573 3223 l-52 -35 35 -69 c19 -38 37 -69 40 -69 3 0 30 15 60 33
52 30 55 34 50 66 -6 37 -52 111 -70 110 -6 0 -34 -16 -63 -36z"/>
<path d="M811 3208 l-43 -31 30 -30 30 -30 41 32 c45 36 50 50 23 74 -24 22
-30 21 -81 -15z"/>
<path d="M1040 3227 c-50 -25 -30 -95 43 -148 l42 -31 3 74 c4 99 -2 118 -36
118 -15 0 -38 -6 -52 -13z"/>
<path d="M309 3206 c19 -23 71 -59 71 -49 -1 4 -20 21 -43 37 -23 16 -36 22
-28 12z"/>
<path d="M1475 3115 c-4 -53 -5 -98 -2 -101 7 -8 77 37 77 49 -1 38 -39 142
-52 145 -13 2 -17 -15 -23 -93z"/>
<path d="M4166 3183 c-29 -15 -90 -14 -143 2 -21 7 -23 4 -23 -34 l0 -41 42 0
c46 0 115 29 143 60 24 27 17 32 -19 13z"/>
<path d="M132 3134 c-61 -29 -112 -56 -112 -58 0 -2 16 -15 35 -30 l34 -26
110 57 111 57 -27 28 c-15 15 -29 28 -32 27 -3 0 -57 -25 -119 -55z"/>
<path d="M2770 3156 c-11 -19 -35 -44 -53 -55 -66 -42 -63 -38 -43 -60 24 -26
33 -26 132 -1 53 14 109 39 172 76 95 57 115 77 49 49 -52 -22 -144 -19 -192
5 -22 11 -40 20 -41 20 -1 0 -12 -16 -24 -34z"/>
<path d="M4397 3173 c-4 -3 -7 -16 -7 -28 0 -45 -34 -119 -73 -158 -35 -35
-37 -39 -15 -34 56 14 99 39 108 61 5 13 12 51 15 83 6 45 4 62 -7 71 -8 6
-18 9 -21 5z"/>
<path d="M2245 3135 c-21 -43 -32 -52 -92 -75 -26 -11 -43 -19 -36 -20 6 0 24
5 40 11 100 39 271 29 360 -21 43 -25 61 -29 89 -24 43 8 35 19 -10 16 -24 -3
-70 16 -181 72 -81 42 -149 76 -151 76 -2 0 -10 -16 -19 -35z"/>
<path d="M3821 3134 c-51 -34 -53 -37 -46 -70 3 -19 15 -55 26 -81 l19 -45 35
45 c19 24 46 54 61 64 l27 20 -29 51 c-16 29 -31 52 -34 52 -3 0 -29 -16 -59
-36z"/>
<path d="M608 3092 l-128 -65 0 -48 0 -49 50 20 c97 38 261 132 260 149 -1 7
-48 62 -52 60 -2 -1 -60 -31 -130 -67z"/>
<path d="M926 3141 c-11 -12 -15 -27 -12 -39 4 -11 -3 -40 -14 -66 -27 -64
-25 -66 10 -18 16 23 44 49 61 57 28 15 29 18 16 33 -7 9 -17 25 -20 35 -8 22
-20 22 -41 -2z"/>
<path d="M1735 3099 c-49 -33 -90 -65 -90 -72 0 -19 44 -12 110 17 33 14 79
26 102 26 l43 0 -32 45 c-18 25 -34 45 -37 44 -3 0 -46 -27 -96 -60z"/>
<path d="M3424 3130 c-80 -47 -82 -51 -42 -117 34 -57 77 -88 64 -45 -8 25 10
38 29 22 11 -9 21 -7 44 11 17 13 31 30 31 38 -1 21 -52 114 -65 118 -5 1 -33
-11 -61 -27z"/>
<path d="M4877 3118 c7 -55 19 -68 34 -36 9 21 8 30 -6 52 -25 37 -34 32 -28
-16z"/>
<path d="M3044 3102 c-129 -78 -265 -172 -270 -187 -3 -7 2 -27 11 -45 9 -17
19 -53 22 -79 l5 -48 97 37 c54 21 105 41 113 46 17 10 102 112 149 180 l28
42 -30 46 c-17 25 -34 48 -39 51 -4 2 -43 -17 -86 -43z"/>
<path d="M2525 3090 l-30 -8 30 -1 c17 0 37 4 45 9 13 9 13 10 0 9 -8 -1 -28
-5 -45 -9z"/>
<path d="M4461 3075 c-1 -11 -4 -30 -7 -42 -5 -17 -2 -23 9 -23 25 0 29 16 13
52 -11 24 -15 28 -15 13z"/>
<path d="M1012 3075 c4 -4 -10 -21 -29 -38 -75 -66 -106 -194 -63 -264 38 -63
96 -69 137 -16 l25 33 -31 -16 c-25 -13 -38 -14 -63 -5 -71 25 -90 74 -63 156
23 67 59 113 98 123 l32 8 -25 14 c-14 7 -22 9 -18 5z"/>
<path d="M330 3050 c-31 -15 -76 -33 -278 -106 -78 -29 -37 -25 104 10 134 34
244 72 244 85 0 3 -8 11 -18 17 -14 9 -26 8 -52 -6z"/>
<path d="M791 3043 c-22 -21 -37 -54 -60 -132 -30 -99 -30 -105 -15 -137 16
-34 67 -84 85 -84 5 0 9 42 10 93 0 50 4 115 9 142 29 155 25 169 -29 118z"/>
<path d="M5033 3058 c-34 -17 -28 -36 30 -92 l52 -51 3 55 c5 88 -24 118 -85
88z"/>
<path d="M3561 2952 c-152 -106 -191 -142 -138 -129 21 6 357 47 380 47 4 0
-6 24 -22 53 -16 28 -35 71 -42 95 -7 23 -15 42 -18 42 -3 -1 -75 -49 -160
-108z"/>
<path d="M4926 3038 c-21 -30 -20 -40 9 -98 32 -63 55 -76 106 -61 22 7 39 14
39 16 0 3 -19 22 -42 43 -23 20 -54 56 -69 80 l-27 43 -16 -23z"/>
<path d="M0 3017 c0 -27 13 -36 26 -16 3 6 -1 18 -10 27 -15 15 -16 14 -16
-11z"/>
<path d="M3928 2982 c-57 -60 -74 -90 -59 -105 12 -12 138 4 248 32 l68 17
-44 8 c-52 8 -89 26 -135 66 l-33 30 -45 -48z"/>
<path d="M1764 2991 c-69 -33 -138 -90 -160 -132 -22 -44 -18 -102 9 -127 34
-32 117 -29 117 4 0 55 99 162 189 205 28 13 51 26 51 30 0 20 -46 43 -93 46
-42 3 -63 -1 -113 -26z"/>
<path d="M2308 3013 c12 -2 32 -2 45 0 12 2 2 4 -23 4 -25 0 -35 -2 -22 -4z"/>
<path d="M400 2989 c-30 -16 -36 -25 -42 -67 -3 -26 -7 -70 -7 -98 -1 -49 0
-51 24 -46 14 2 25 8 25 12 0 4 9 51 20 105 12 53 20 101 18 105 -2 4 -19 -1
-38 -11z"/>
<path d="M1017 2999 c-42 -25 -74 -148 -45 -177 18 -18 64 -15 84 5 27 28 66
120 62 150 -3 25 -7 28 -43 30 -22 2 -48 -2 -58 -8z"/>
<path d="M1535 2983 c-15 -16 -40 -53 -54 -83 -42 -90 -31 -214 23 -259 13
-11 22 -9 50 9 l35 21 -26 40 c-37 57 -30 127 21 205 l38 57 -23 18 c-31 24
-31 24 -64 -8z"/>
<path d="M2405 3002 c13 -12 96 -35 102 -29 3 3 -5 10 -16 17 -26 13 -99 24
-86 12z"/>
<path d="M3175 2928 c-63 -91 -62 -88 -23 -78 18 4 54 11 81 15 26 3 47 10 47
15 0 11 -47 120 -52 120 -2 0 -25 -33 -53 -72z"/>
<path d="M1269 2963 c-19 -54 -19 -58 1 -34 11 13 20 32 20 42 0 27 -9 23 -21
-8z"/>
<path d="M2736 2977 c-23 -10 -26 -15 -15 -24 11 -8 22 -5 49 13 26 19 30 24
15 24 -11 -1 -33 -6 -49 -13z"/>
<path d="M4526 2977 c-14 -10 -16 -20 -11 -38 8 -24 8 -24 22 10 16 39 13 46
-11 28z"/>
<path d="M664 2965 c-18 -15 -18 -15 5 -13 14 2 26 9 29 16 5 17 -10 15 -34
-3z"/>
<path d="M871 2954 c0 -11 3 -14 6 -6 3 7 2 16 -1 19 -3 4 -6 -2 -5 -13z"/>
<path d="M1151 2929 c-7 -22 -10 -43 -7 -46 2 -3 10 14 16 37 15 55 7 63 -9 9z"/>
<path d="M1192 2909 c-14 -33 -16 -47 -7 -39 15 12 40 78 33 85 -2 3 -14 -18
-26 -46z"/>
<path d="M2135 2949 c7 -10 55 -18 55 -9 0 4 -13 10 -29 12 -17 2 -28 1 -26
-3z"/>
<path d="M2237 2947 c-16 -11 -14 -16 23 -52 l40 -39 0 52 c0 48 -2 52 -23 52
-13 0 -31 -6 -40 -13z"/>
<path d="M2342 2891 c5 -65 9 -77 37 -104 l31 -32 0 28 c0 29 31 100 57 129
14 16 13 18 -12 28 -16 6 -49 14 -73 17 l-45 6 5 -72z"/>
<path d="M4365 2928 c-49 -16 -155 -47 -235 -69 -80 -22 -146 -42 -148 -44 -4
-4 19 -155 24 -155 9 0 322 139 395 176 l87 43 -11 40 c-6 23 -14 41 -17 40
-3 -1 -45 -14 -95 -31z"/>
<path d="M4848 2944 c-9 -9 -67 -42 -128 -74 l-113 -57 49 -16 c51 -17 100
-22 171 -19 39 2 44 6 63 42 24 47 25 71 5 110 -18 34 -24 36 -47 14z"/>
<path d="M1372 2900 c-159 -87 -265 -175 -335 -280 -35 -52 -47 -93 -29 -104
9 -5 200 149 277 224 28 27 60 50 72 52 17 2 32 21 58 76 19 39 33 72 32 72
-1 0 -35 -18 -75 -40z"/>
<path d="M3320 2922 c0 -21 31 -50 50 -45 27 7 25 17 -5 37 -26 17 -45 21 -45
8z"/>
<path d="M2570 2909 c-33 -13 -68 -47 -86 -81 -33 -64 -3 -127 81 -168 l45
-22 54 25 c59 27 84 57 92 108 6 40 -19 94 -57 122 -31 22 -95 31 -129 16z"/>
<path d="M488 2889 c-21 -11 -38 -25 -38 -31 0 -7 7 -5 18 4 9 9 31 23 47 31
17 9 26 16 20 16 -5 0 -27 -9 -47 -20z"/>
<path d="M602 2894 c-85 -26 -149 -81 -124 -106 6 -6 33 -13 60 -16 l49 -4 41
66 c23 36 42 68 42 71 0 8 -20 5 -68 -11z"/>
<path d="M1921 2888 c-58 -28 -124 -92 -119 -114 2 -14 21 -21 83 -31 110 -19
185 -39 293 -79 l92 -35 46 37 45 37 -23 24 c-63 67 -278 183 -340 183 -18 0
-53 -10 -77 -22z"/>
<path d="M175 2890 l-40 -7 41 -2 c23 0 60 -8 83 -16 39 -14 41 -13 31 4 -16
31 -37 35 -115 21z"/>
<path d="M48 2864 c-27 -8 -48 -19 -48 -25 0 -6 9 -5 22 2 13 7 43 18 68 25
25 7 36 12 25 12 -11 1 -41 -6 -67 -14z"/>
<path d="M863 2820 c0 -30 2 -43 4 -27 2 15 2 39 0 55 -2 15 -4 2 -4 -28z"/>
<path d="M5065 2854 l-40 -14 39 5 c22 2 44 9 50 15 13 13 0 12 -49 -6z"/>
<path d="M4945 2840 c3 -5 11 -10 16 -10 6 0 7 5 4 10 -3 6 -11 10 -16 10 -6
0 -7 -4 -4 -10z"/>
<path d="M3850 2830 c0 -5 5 -10 11 -10 5 0 7 5 4 10 -3 6 -8 10 -11 10 -2 0
-4 -4 -4 -10z"/>
<path d="M153 2820 c52 -9 79 -28 108 -74 15 -24 19 -27 24 -14 17 43 -62 99
-137 97 l-43 -1 48 -8z"/>
<path d="M3182 2809 c-134 -28 -292 -83 -402 -140 -146 -74 -144 -71 -77 -102
l57 -26 53 18 c111 39 222 94 251 126 25 26 55 40 145 69 63 20 123 36 133 36
13 0 18 6 16 18 -5 25 -64 25 -176 1z"/>
<path d="M3740 2823 c-173 -27 -160 -22 -160 -54 0 -16 5 -29 12 -29 24 0 197
74 192 82 -3 4 -8 7 -12 7 -4 -1 -18 -3 -32 -6z"/>
<path d="M47 2798 l-47 -21 0 -52 c0 -52 1 -54 37 -72 80 -39 107 -134 58
-199 -13 -17 -40 -42 -60 -54 -19 -12 -35 -28 -35 -36 0 -23 13 -17 72 36 64
57 98 118 98 178 0 53 -13 85 -55 136 -36 45 -43 74 -23 94 16 16 11 15 -45
-10z"/>
<path d="M3872 2698 c-27 -57 -49 -105 -47 -106 4 -4 60 12 108 30 24 9 27 16
26 52 0 61 -13 119 -25 123 -6 2 -34 -43 -62 -99z"/>
<path d="M175 2767 c10 -15 27 -33 39 -39 20 -11 20 -10 5 12 -8 13 -26 31
-39 39 l-24 16 19 -28z"/>
<path d="M3455 2776 c-65 -14 -75 -22 -75 -54 0 -49 11 -53 65 -28 28 12 62
26 78 30 27 6 33 20 21 50 -7 18 -19 18 -89 2z"/>
<path d="M5055 2774 c-22 -8 -92 -25 -155 -38 -113 -23 -114 -23 -126 -57 -18
-50 -17 -52 26 -45 111 18 142 29 186 67 25 22 63 48 85 59 61 32 53 39 -16
14z"/>
<path d="M3795 2755 c-53 -20 -163 -71 -174 -81 -7 -7 54 -116 68 -122 28 -11
77 29 113 91 37 66 63 125 57 131 -2 2 -31 -6 -64 -19z"/>
<path d="M4307 2728 c-74 -37 -80 -42 -103 -95 -26 -58 -23 -72 16 -73 8 0 31
-3 51 -6 35 -6 37 -5 44 27 4 19 23 67 41 108 19 41 33 75 32 77 -2 1 -38 -16
-81 -38z"/>
<path d="M872 2740 c0 -14 2 -19 5 -12 2 6 2 18 0 25 -3 6 -5 1 -5 -13z"/>
<path d="M4438 2743 c-55 -63 -94 -201 -84 -299 7 -67 32 -160 45 -168 5 -3 2
13 -6 37 -40 116 -24 286 38 394 31 55 32 65 7 36z"/>
<path d="M4502 2730 c-33 -32 -58 -96 -71 -179 -12 -78 7 -65 78 52 32 52 41
77 41 112 0 25 -4 45 -9 45 -5 0 -23 -13 -39 -30z"/>
<path d="M4603 2706 c3 -28 20 -90 38 -136 l32 -85 18 70 c10 39 25 90 33 114
9 24 15 45 14 46 -2 1 -34 11 -72 23 l-69 20 6 -52z"/>
<path d="M373 2733 c-9 -3 -13 -28 -13 -74 0 -67 1 -69 25 -69 24 0 25 2 25
75 0 75 -4 82 -37 68z"/>
<path d="M627 2697 c-28 -28 -65 -86 -105 -166 -34 -69 -62 -128 -62 -132 0
-11 239 99 276 128 28 21 54 67 54 95 0 9 -106 118 -115 118 -3 0 -25 -19 -48
-43z"/>
<path d="M3227 2711 c-43 -16 -80 -31 -83 -34 -3 -3 11 -10 32 -16 101 -27
164 -38 169 -31 8 13 -18 110 -29 109 -6 0 -46 -13 -89 -28z"/>
<path d="M470 2703 c0 -17 -3 -51 -6 -77 -5 -31 -3 -46 5 -46 12 0 78 126 70
135 -3 2 -20 8 -37 11 -30 6 -32 5 -32 -23z"/>
<path d="M5090 2720 c-8 -5 -10 -10 -5 -10 6 0 17 5 25 10 8 5 11 10 5 10 -5
0 -17 -5 -25 -10z"/>
<path d="M1365 2710 c-6 -10 35 -73 43 -66 2 3 -1 21 -8 40 -12 36 -23 45 -35
26z"/>
<path d="M5034 2694 c-18 -14 -18 -14 6 -3 31 14 36 19 24 19 -6 0 -19 -7 -30
-16z"/>
<path d="M1790 2676 c-13 -36 -13 -69 2 -101 13 -28 19 -29 103 -12 l60 13 0
44 c0 39 -4 46 -27 58 -15 7 -50 16 -78 19 -47 5 -50 4 -60 -21z"/>
<path d="M2397 2662 c-15 -15 -27 -33 -27 -39 0 -13 71 -73 108 -92 19 -10 27
-8 62 20 22 18 40 36 40 40 0 4 -22 21 -49 39 -27 17 -55 38 -61 46 -19 22
-43 17 -73 -14z"/>
<path d="M974 2664 c3 -9 6 -18 6 -20 0 -3 5 -2 10 1 16 10 12 35 -6 35 -11 0
-14 -5 -10 -16z"/>
<path d="M3448 2658 c-49 -21 -59 -34 -34 -44 11 -4 116 52 116 62 0 10 -40 1
-82 -18z"/>
<path d="M5090 2665 c-14 -7 -55 -23 -92 -35 l-66 -22 -30 -72 c-36 -87 -52
-158 -52 -236 l0 -59 68 -69 c64 -66 113 -103 175 -130 25 -11 27 -10 27 12 0
18 -7 26 -27 31 -56 13 -134 69 -161 115 -23 39 -27 56 -27 125 0 68 5 88 29
138 28 55 80 111 155 168 40 29 40 55 1 34z"/>
<path d="M877 2664 c-3 -6 -9 -38 -13 -72 l-7 -62 27 0 c24 0 26 3 26 48 -1
47 -22 103 -33 86z"/>
<path d="M1210 2620 c-25 -22 -40 -40 -33 -40 8 0 68 44 102 76 2 2 -2 4 -10
4 -8 0 -34 -18 -59 -40z"/>
<path d="M2002 2633 c3 -28 3 -28 82 -29 68 0 76 1 60 13 -19 14 -108 43 -131
43 -10 0 -13 -9 -11 -27z"/>
<path d="M4077 2619 c-74 -44 -74 -45 -39 -129 27 -67 35 -67 48 -2 7 33 24
84 38 113 14 29 24 54 23 56 -2 1 -33 -16 -70 -38z"/>
<path d="M3525 2618 l-50 -31 40 -18 c60 -26 115 -34 115 -18 -1 21 -38 99
-47 99 -4 0 -30 -15 -58 -32z"/>
<path d="M1317 2618 c-13 -14 -16 -27 -11 -53 9 -49 21 -52 57 -16 l32 31 -30
29 c-29 28 -30 28 -48 9z"/>
<path d="M0 2564 c0 -50 1 -54 19 -45 26 14 33 37 19 66 -21 48 -38 39 -38
-21z"/>
<path d="M1624 2599 c-18 -20 -18 -21 1 -57 16 -29 27 -38 52 -40 25 -3 35 2
48 22 42 64 -49 132 -101 75z"/>
<path d="M3106 2596 c-13 -15 -34 -55 -46 -89 -31 -85 -51 -105 -89 -90 l-30
11 -7 -56 c-19 -153 66 -372 143 -372 24 0 24 1 18 68 -12 125 34 276 121 398
34 47 54 85 52 98 -3 24 -35 41 -95 51 -37 6 -45 4 -67 -19z"/>
<path d="M4536 2574 c-16 -27 -47 -68 -69 -91 l-40 -42 17 -68 c20 -78 89
-214 149 -292 41 -53 41 -53 57 -31 8 12 33 45 55 73 l41 52 -27 65 c-15 36
-33 93 -39 127 -9 46 -20 71 -44 96 -18 19 -39 60 -51 97 l-21 64 -28 -50z"/>
<path d="M4812 2595 c-34 -7 -66 -15 -69 -19 -16 -16 -8 -201 11 -263 11 -35
23 -63 27 -63 5 0 11 17 14 38 15 97 48 222 70 270 13 28 21 51 17 51 -4 -1
-35 -7 -70 -14z"/>
<path d="M2210 2587 c0 -13 88 -53 96 -44 11 11 -7 25 -51 40 -33 12 -45 13
-45 4z"/>
<path d="M1447 2583 c-15 -15 -5 -25 19 -19 21 6 25 4 22 -11 -4 -21 -63 -52
-253 -130 -126 -51 -148 -57 -218 -58 -64 -1 -82 -5 -98 -22 l-21 -20 26 -52
c15 -28 28 -51 30 -51 2 0 46 20 99 45 96 44 251 100 420 150 l88 26 -32 26
c-27 23 -31 31 -26 64 4 32 1 38 -20 48 -28 13 -28 13 -36 4z"/>
<path d="M1207 2553 c-32 -22 -37 -32 -37 -65 0 -21 2 -38 5 -38 16 0 105 45
105 54 0 16 -23 76 -30 76 -3 0 -22 -12 -43 -27z"/>
<path d="M2993 2558 c-37 -42 -47 -68 -30 -85 21 -21 34 -10 47 38 6 22 14 47
17 55 8 21 -11 17 -34 -8z"/>
<path d="M5050 2518 c-66 -65 -92 -123 -94 -209 -1 -86 28 -135 106 -171 68
-33 76 -15 20 46 -51 55 -82 115 -82 159 0 46 45 132 86 165 31 25 46 62 25
62 -4 0 -32 -23 -61 -52z"/>
<path d="M2576 2531 c-54 -56 -67 -58 -140 -17 l-65 37 -17 -25 c-15 -25 -15
-27 23 -71 l38 -46 66 3 c51 3 81 11 135 38 81 41 90 65 34 92 -45 22 -42 23
-74 -11z"/>
<path d="M3459 2521 c43 -54 45 -55 83 -35 l32 17 -51 22 c-97 43 -101 43 -64
-4z"/>
<path d="M2025 2540 c-12 -19 7 -30 53 -30 59 0 130 -32 204 -93 62 -51 81
-49 45 4 -32 48 -100 96 -159 114 -59 17 -134 20 -143 5z"/>
<path d="M1082 2507 c-14 -15 -22 -36 -22 -60 0 -20 2 -37 4 -37 1 0 17 5 35
11 26 9 31 16 31 44 0 37 -8 65 -19 65 -4 0 -17 -10 -29 -23z"/>
<path d="M3869 2514 c-10 -13 -10 -17 2 -25 8 -5 19 -9 25 -9 6 0 36 -18 67
-41 32 -22 57 -37 57 -34 0 14 -34 72 -58 98 -29 30 -72 36 -93 11z"/>
<path d="M4160 2493 c-6 -21 -14 -69 -17 -108 -4 -62 -2 -74 19 -104 31 -47
45 -48 62 -8 8 19 29 52 48 73 32 37 33 43 30 100 l-4 62 -49 6 c-27 4 -56 9
-63 12 -10 4 -18 -6 -26 -33z"/>
<path d="M281 2509 c-14 -5 -64 -47 -112 -94 -47 -46 -105 -93 -128 -104 -39
-20 -41 -24 -41 -65 l0 -44 38 10 c104 29 291 141 333 200 18 25 19 33 9 58
-7 17 -24 33 -42 39 -17 6 -31 11 -32 10 -1 0 -12 -5 -25 -10z"/>
<path d="M3722 2509 c-37 -11 -38 -32 -3 -37 39 -6 71 7 71 28 0 22 -15 24
-68 9z"/>
<path d="M1598 2483 c13 -18 28 -33 33 -33 17 0 8 15 -24 40 l-32 25 23 -32z"/>
<path d="M1872 2498 c8 -22 37 -34 55 -22 33 21 26 34 -17 34 -28 0 -40 -4
-38 -12z"/>
<path d="M1740 2455 l-44 -45 21 -21 c24 -25 44 -21 92 21 l34 29 -36 17 c-29
14 -34 20 -26 31 25 29 1 10 -41 -32z"/>
<path d="M2747 2493 c-4 -3 -7 -37 -7 -75 l0 -68 30 -1 c17 -1 35 -2 42 -3 12
-1 19 19 32 85 6 33 4 36 -29 52 -38 18 -58 21 -68 10z"/>
<path d="M21 2469 c-13 -11 -22 -22 -19 -24 2 -3 15 6 28 20 28 30 24 32 -9 4z"/>
<path d="M3573 2457 l-51 -32 70 -95 c41 -56 78 -96 90 -98 16 -3 20 0 16 15
-3 10 -18 65 -33 123 -16 58 -31 108 -34 112 -3 4 -29 -7 -58 -25z"/>
<path d="M754 2458 c8 -36 -19 -54 -100 -67 -72 -11 -133 -40 -229 -110 -97
-69 -120 -89 -115 -94 6 -6 272 46 345 68 28 8 72 28 98 45 46 29 47 31 32 52
-8 12 -15 41 -15 63 0 22 -5 47 -11 55 -8 12 -9 9 -5 -12z"/>
<path d="M858 2473 c12 -2 30 -2 40 0 9 3 -1 5 -23 4 -22 0 -30 -2 -17 -4z"/>
<path d="M991 2451 c-26 -36 -21 -51 19 -51 28 0 29 2 23 33 -9 48 -18 52 -42
18z"/>
<path d="M3304 2433 c-56 -56 -87 -133 -92 -229 -2 -45 0 -89 4 -97 6 -10 9
15 9 66 0 64 6 93 24 135 25 56 76 108 116 118 28 7 33 29 9 38 -26 10 -32 7
-70 -31z"/>
<path d="M5094 2448 c-28 -30 -40 -55 -48 -100 -11 -59 11 -54 24 5 6 30 20
64 31 76 11 12 19 26 17 32 -2 6 -13 0 -24 -13z"/>
<path d="M1943 2439 c-29 -11 -74 -39 -99 -63 l-48 -42 43 -18 c89 -35 116
-33 227 21 55 28 111 52 123 56 29 7 20 22 -29 47 -52 26 -147 26 -217 -1z"/>
<path d="M2612 2402 c-95 -40 -111 -65 -72 -107 l23 -24 33 28 c18 16 48 34
68 41 34 11 36 14 36 56 0 24 -1 44 -2 43 -2 -1 -40 -17 -86 -37z"/>
<path d="M3860 2433 c1 -23 19 -34 45 -27 26 7 27 8 10 20 -20 15 -55 19 -55
7z"/>
<path d="M3720 2362 c10 -37 31 -101 46 -142 35 -100 161 -350 175 -350 4 0
15 21 26 47 l19 47 -57 112 c-32 61 -75 166 -95 233 l-38 121 -47 0 -48 0 19
-68z"/>
<path d="M858 2402 c-46 -28 -35 -47 12 -21 40 22 52 39 28 39 -7 0 -25 -8
-40 -18z"/>
<path d="M1534 2389 c-3 -6 -1 -16 5 -22 8 -8 11 -5 11 11 0 24 -5 28 -16 11z"/>
<path d="M1592 2333 c3 -50 13 -87 37 -141 43 -91 49 -96 89 -70 23 15 32 27
32 48 0 15 3 47 6 71 6 43 5 45 -30 62 -20 9 -56 35 -80 57 -24 22 -47 40 -51
40 -4 0 -5 -30 -3 -67z"/>
<path d="M2891 2374 c0 -11 3 -14 6 -6 3 7 2 16 -1 19 -3 4 -6 -2 -5 -13z"/>
<path d="M3347 2362 c-43 -47 -65 -171 -43 -245 16 -56 40 -84 95 -112 33 -16
34 -16 26 1 -29 69 -11 210 40 301 l24 43 -22 15 c-30 21 -100 19 -120 -3z"/>
<path d="M3906 2371 c-16 -6 -13 -12 25 -45 67 -57 74 -60 88 -28 12 24 10 29
-18 54 -31 28 -59 33 -95 19z"/>
<path d="M2238 2358 c-33 -12 -38 -32 -5 -22 43 13 67 24 67 29 0 8 -32 5 -62
-7z"/>
<path d="M1374 2339 c-61 -23 -61 -22 -4 -144 51 -110 68 -129 102 -116 35 13
94 -3 112 -32 8 -12 17 -44 21 -71 7 -53 48 -106 82 -106 13 0 9 6 -14 20 -26
15 -35 31 -48 77 -21 76 -26 84 -66 110 -76 48 -105 102 -116 221 -3 34 -9 62
-12 61 -3 0 -29 -9 -57 -20z"/>
<path d="M2450 2341 c16 -32 30 -34 30 -7 0 19 -5 26 -20 26 -17 0 -19 -3 -10
-19z"/>
<path d="M1490 2331 c0 -12 5 -21 10 -21 6 0 10 6 10 14 0 8 -4 18 -10 21 -5
3 -10 -3 -10 -14z"/>
<path d="M2068 2292 c-74 -33 -96 -52 -63 -52 8 0 15 -8 15 -18 0 -13 -13 -21
-46 -30 -63 -17 -186 -75 -256 -120 -64 -41 -92 -78 -31 -41 83 50 163 89 262
129 79 31 106 38 117 29 10 -8 29 -7 77 5 35 9 71 16 80 16 19 0 21 17 7 55
-8 21 -15 26 -32 22 -29 -8 -52 11 -37 29 19 23 -8 16 -93 -24z"/>
<path d="M4286 2294 c-39 -60 -43 -103 -15 -153 12 -23 26 -41 31 -41 4 0 15
11 24 25 13 20 15 39 10 88 -3 34 -10 75 -14 92 l-8 30 -28 -41z"/>
<path d="M2360 2293 c0 -55 10 -73 41 -73 28 0 29 2 29 50 l0 50 -35 0 c-32 0
-35 -3 -35 -27z"/>
<path d="M2876 2277 c-4 -26 -16 -73 -27 -104 -48 -140 -5 -253 101 -266 25
-3 54 -9 63 -13 30 -11 20 34 -17 79 -60 74 -94 166 -105 280 l-7 72 -8 -48z"/>
<path d="M1195 2275 c-93 -39 -92 -36 -55 -174 17 -63 32 -94 58 -123 l35 -39
-17 -36 -17 -35 28 6 c30 8 213 85 225 95 4 3 -14 33 -39 66 -49 65 -97 153
-122 227 l-16 47 -80 -34z"/>
<path d="M2293 2303 c-8 -2 -13 -22 -13 -44 0 -35 3 -39 25 -39 23 0 25 4 25
45 0 44 -6 51 -37 38z"/>
<path d="M2681 2300 c-37 -9 -87 -52 -77 -68 3 -5 18 -13 33 -16 16 -4 51 -23
80 -41 l52 -34 19 52 c30 80 33 95 25 100 -18 10 -100 15 -132 7z"/>
<path d="M3496 2270 c-21 -54 -40 -172 -32 -204 5 -19 13 -26 31 -26 23 0 132
34 142 44 7 6 -107 226 -117 226 -4 0 -15 -18 -24 -40z"/>
<path d="M1531 2286 c-8 -9 -20 -16 -27 -16 -19 0 -17 -27 7 -80 29 -64 57
-92 80 -79 18 9 18 11 -1 49 -11 22 -26 63 -33 91 -12 43 -15 48 -26 35z"/>
<path d="M806 2275 c-11 -8 -16 -21 -13 -29 4 -10 -8 -30 -34 -54 l-40 -39 26
-17 c39 -26 65 -75 65 -124 0 -36 3 -43 18 -39 57 16 79 16 125 3 29 -8 77
-31 107 -50 30 -19 56 -33 58 -32 9 10 -16 39 -51 60 -48 28 -102 82 -141 141
-22 33 -26 36 -26 17 0 -15 -6 -22 -19 -22 -11 0 -23 5 -26 10 -13 21 -8 71 9
89 16 18 16 21 -4 60 -22 45 -26 47 -54 26z"/>
<path d="M1797 2274 c-8 -8 -10 -104 -2 -104 13 0 145 64 145 70 0 4 -26 13
-57 20 -32 7 -63 14 -69 17 -5 2 -13 0 -17 -3z"/>
<path d="M2476 2264 c-13 -35 -6 -49 31 -61 21 -6 40 -10 42 -8 11 11 -12 52
-38 68 -26 15 -30 15 -35 1z"/>
<path d="M5090 2262 c0 -5 7 -17 15 -28 14 -18 14 -18 15 9 0 17 -5 27 -15 27
-8 0 -15 -4 -15 -8z"/>
<path d="M3904 2235 c3 -13 11 -37 17 -52 l11 -28 18 35 c19 35 19 35 -2 53
-30 26 -52 22 -44 -8z"/>
<path d="M720 2231 c-13 -8 -51 -21 -138 -47 -22 -6 14 -64 41 -64 36 0 50 15
43 44 -6 23 -2 28 34 42 22 9 40 20 40 25 0 11 -1 11 -20 0z"/>
<path d="M4020 2194 c-42 -66 -46 -88 -24 -135 23 -53 68 -90 158 -133 94 -45
100 -45 91 -3 -15 68 -23 79 -46 66 -13 -6 -42 -9 -68 -6 -99 11 -145 121 -90
216 31 53 13 49 -21 -5z"/>
<path d="M1002 2189 c-29 -16 -52 -33 -52 -37 0 -23 66 -115 97 -137 71 -48
77 -31 39 109 -14 48 -26 90 -28 92 -2 2 -27 -10 -56 -27z"/>
<path d="M4807 2214 c-10 -10 19 -57 84 -138 73 -91 87 -100 117 -77 l22 16
-41 33 c-31 23 -46 29 -55 21 -10 -8 -20 0 -43 32 -17 23 -31 45 -31 49 0 13
-47 70 -53 64z"/>
<path d="M4099 2194 c-77 -40 -43 -168 45 -168 68 0 82 38 41 108 -39 66 -54
77 -86 60z"/>
<path d="M4390 2193 c0 -29 15 -44 52 -52 l36 -8 -21 38 c-15 28 -27 39 -44
39 -15 0 -23 -6 -23 -17z"/>
<path d="M3690 2186 c0 -2 18 -43 41 -91 27 -59 43 -85 50 -78 16 16 -51 173
-73 173 -10 0 -18 -2 -18 -4z"/>
<path d="M2205 2164 c-44 -8 -84 -19 -88 -23 -21 -21 10 -28 125 -28 136 0
200 -13 301 -65 53 -26 61 -28 75 -14 51 51 -149 149 -298 145 -19 0 -71 -7
-115 -15z"/>
<path d="M2610 2161 c0 -12 4 -21 9 -21 5 0 32 -21 60 -46 l51 -46 12 27 c11
24 10 29 -12 46 -30 24 -67 44 -97 53 -19 6 -23 4 -23 -13z"/>
<path d="M451 2163 c-23 -5 -23 -5 15 -44 21 -21 44 -39 51 -39 22 0 26 26 8
59 -15 30 -24 33 -74 24z"/>
<path d="M2012 2152 c-9 -6 -10 -16 -1 -40 10 -28 13 -30 34 -20 23 10 23 12
9 39 -15 31 -21 34 -42 21z"/>
<path d="M303 2128 c-32 -11 -43 -31 -23 -43 6 -3 10 -15 10 -25 0 -32 40 -91
59 -86 67 20 66 20 122 -43 29 -34 58 -61 64 -61 5 0 22 10 37 23 l27 22 -76
80 c-78 82 -87 84 -25 7 24 -31 31 -47 24 -54 -6 -6 -17 -8 -26 -5 -23 9 -91
101 -112 151 -20 48 -27 51 -81 34z m27 -64 c0 -8 -4 -14 -10 -14 -5 0 -10 9
-10 21 0 11 5 17 10 14 6 -3 10 -13 10 -21z"/>
<path d="M4715 2072 l-48 -72 29 -31 c44 -46 123 -102 137 -96 6 3 31 19 55
36 l42 31 -52 63 c-29 34 -67 80 -84 102 l-31 39 -48 -72z"/>
<path d="M130 2115 c0 -10 24 -55 30 -55 3 0 15 6 25 14 27 19 13 46 -25 46
-16 0 -30 -2 -30 -5z"/>
<path d="M1930 2113 c-8 -3 -53 -23 -100 -45 l-85 -39 42 -19 41 -18 76 39
c77 41 81 45 70 73 -6 16 -18 19 -44 9z"/>
<path d="M635 2070 c-25 -28 -11 -71 28 -84 51 -18 92 26 67 72 -20 35 -68 42
-95 12z"/>
<path d="M1625 2080 c-3 -5 1 -10 9 -10 9 0 16 5 16 10 0 6 -4 10 -9 10 -6 0
-13 -4 -16 -10z"/>
<path d="M13 2073 c-11 -4 -20 -93 -9 -93 2 0 24 12 50 26 38 21 44 29 36 44
-14 26 -46 36 -77 23z"/>
<path d="M2053 2060 c-21 -9 -22 -20 -7 -68 6 -21 124 45 124 70 0 11 -89 9
-117 -2z"/>
<path d="M4372 2048 c-20 -22 -20 -26 -6 -83 7 -33 14 -77 14 -97 0 -21 4 -38
9 -38 5 0 27 20 49 44 38 42 62 95 62 142 0 52 -88 74 -128 32z"/>
<path d="M2210 2049 c0 -6 -18 -27 -41 -47 l-40 -36 33 -12 c18 -7 45 -13 61
-13 27 -1 27 0 27 59 0 53 -2 60 -20 60 -11 0 -20 -5 -20 -11z"/>
<path d="M2290 1995 c0 -62 2 -66 27 -76 50 -19 58 -10 54 56 -4 70 -13 85
-52 85 -29 0 -29 0 -29 -65z"/>
<path d="M3598 2025 c-31 -13 -71 -26 -88 -30 -17 -4 -29 -12 -27 -18 5 -19
206 -130 222 -123 30 11 28 53 -6 126 -17 38 -35 70 -38 70 -3 -1 -32 -11 -63
-25z"/>
<path d="M1515 2002 c39 -36 40 -36 43 -14 5 32 -15 52 -52 52 l-31 -1 40 -37z"/>
<path d="M2410 1996 c0 -25 4 -47 9 -50 10 -7 111 33 111 44 0 8 -92 50 -109
50 -6 0 -11 -20 -11 -44z"/>
<path d="M1932 2005 c-29 -13 -52 -27 -52 -30 0 -13 72 -35 95 -29 19 5 25 13
25 33 0 48 -11 52 -68 26z"/>
<path d="M230 1990 c31 -43 46 -48 18 -6 -13 20 -27 36 -31 36 -5 0 1 -13 13
-30z"/>
<path d="M4546 1979 c-10 -61 -40 -113 -101 -173 -50 -49 -83 -102 -71 -113 3
-3 26 3 52 13 67 26 156 115 177 178 l17 50 -27 38 c-36 53 -40 54 -47 7z"/>
<path d="M2736 2001 c-3 -5 4 -11 16 -14 30 -8 35 -1 9 12 -11 6 -22 7 -25 2z"/>
<path d="M3195 1980 c-34 -20 -64 -30 -92 -30 l-42 0 13 -37 c12 -33 17 -38
41 -35 41 5 84 29 127 70 29 27 35 39 27 49 -15 17 -16 17 -74 -17z"/>
<path d="M1665 1990 c-10 -17 20 -56 54 -70 26 -10 35 -10 56 4 14 9 25 20 25
24 0 11 -87 52 -110 52 -10 0 -22 -5 -25 -10z"/>
<path d="M70 1951 c-55 -23 -66 -32 -68 -54 l-3 -27 81 0 81 0 -3 52 c-2 28
-7 53 -13 54 -5 1 -39 -10 -75 -25z"/>
<path d="M5039 1960 l-24 -20 33 11 c35 12 52 29 29 29 -8 0 -25 -9 -38 -20z"/>
<path d="M1147 1945 c5 -25 17 -32 27 -16 3 4 -3 16 -13 25 -17 16 -18 15 -14
-9z"/>
<path d="M3315 1940 c-55 -44 -145 -97 -177 -105 -16 -4 -28 -9 -28 -12 0 -14
84 -183 91 -183 5 0 43 5 86 12 58 8 117 28 227 77 82 36 151 71 153 77 3 10
-243 143 -293 158 -15 4 -32 -3 -59 -24z"/>
<path d="M3800 1937 c0 -13 -13 -51 -30 -83 -31 -62 -28 -73 20 -74 14 0 57
-11 95 -24 39 -14 71 -23 72 -22 2 1 -5 13 -15 26 -9 13 -40 62 -67 109 -53
89 -75 109 -75 68z"/>
<path d="M4308 1906 c-17 -51 -14 -71 16 -96 14 -11 16 -7 15 36 -1 27 -4 63
-8 79 -6 30 -7 29 -23 -19z"/>
<path d="M2590 1919 c-60 -27 -117 -83 -146 -144 -51 -107 -12 -150 45 -50 42
75 94 108 177 113 88 6 151 -26 237 -119 61 -65 87 -83 87 -58 0 6 -38 50 -85
97 -79 80 -100 112 -75 112 27 0 5 23 -42 45 -66 31 -136 32 -198 4z"/>
<path d="M381 1922 c6 -16 337 -409 406 -482 64 -67 118 -106 127 -92 3 5 -17
25 -44 45 -27 21 -105 103 -172 185 -203 244 -331 383 -317 344z"/>
<path d="M837 1911 c82 -31 182 -86 262 -146 40 -31 76 -54 78 -51 3 3 -19 29
-48 58 -79 79 -195 138 -299 152 l-45 6 52 -19z"/>
<path d="M2032 1915 c-39 -17 -46 -32 -34 -76 12 -47 46 -58 107 -35 82 32 95
90 24 115 -41 14 -57 13 -97 -4z"/>
<path d="M1475 1894 c-22 -13 -44 -26 -50 -27 -10 -4 22 -47 35 -47 9 0 61 81
58 91 -2 4 -21 -3 -43 -17z"/>
<path d="M251 1861 c-28 -33 -41 -58 -41 -78 0 -36 19 -93 30 -93 12 0 173 61
182 69 7 6 -94 130 -117 143 -9 5 -27 -9 -54 -41z"/>
<path d="M1795 1891 c-48 -17 -70 -47 -32 -45 9 0 58 1 108 2 99 2 109 11 49
44 -42 22 -60 22 -125 -1z"/>
<path d="M2428 1878 c-31 -34 -48 -67 -48 -96 0 -9 9 1 20 23 10 22 31 55 46
73 34 42 21 42 -18 0z"/>
<path d="M5010 1874 c-52 -19 -155 -58 -228 -86 -134 -52 -134 -52 -110 -69
61 -47 62 -47 262 38 l185 78 1 38 c0 20 -3 37 -7 36 -5 0 -51 -16 -103 -35z"/>
<path d="M1316 1864 c-37 -19 -66 -38 -63 -40 3 -3 38 13 79 35 89 50 79 53
-16 5z"/>
<path d="M4000 1870 c-18 -43 -7 -47 13 -5 9 19 13 35 8 35 -5 0 -14 -14 -21
-30z"/>
<path d="M1550 1860 l-21 -30 33 0 c19 0 50 -9 71 -19 58 -30 48 -6 -20 46
l-42 33 -21 -30z"/>
<path d="M650 1871 c0 -12 25 -21 57 -21 41 0 146 -30 166 -47 9 -9 17 -24 17
-34 0 -12 26 -32 81 -61 89 -47 188 -131 244 -209 31 -41 41 -48 59 -43 11 4
29 8 39 8 21 0 21 -2 -4 49 -44 86 -204 214 -353 282 -126 59 -306 103 -306
76z"/>
<path d="M2234 1845 c-30 -46 3 -98 47 -75 19 11 25 51 13 84 -9 24 -41 19
-60 -9z"/>
<path d="M4090 1838 c-22 -37 -20 -44 8 -29 31 17 63 13 102 -11 69 -43 80
-48 80 -33 0 26 -116 105 -155 105 -8 0 -24 -14 -35 -32z"/>
<path d="M4637 1828 c-16 -22 -25 -38 -20 -37 4 2 25 11 46 19 42 16 44 21 20
42 -17 15 -20 13 -46 -24z"/>
<path d="M573 1848 c-13 -6 -23 -14 -23 -18 0 -3 10 -16 23 -28 21 -20 23 -20
44 -3 20 17 21 20 7 40 -17 24 -20 24 -51 9z"/>
<path d="M2901 1851 c-18 -12 -9 -24 62 -83 l49 -42 19 25 c22 29 17 56 -17
87 -26 23 -86 30 -113 13z"/>
<path d="M1322 1809 c-28 -17 -52 -32 -52 -35 0 -2 14 -33 32 -68 l31 -64 28
56 c16 32 35 66 44 78 14 19 13 22 -8 42 l-22 21 -53 -30z"/>
<path d="M1195 1800 c10 -11 20 -20 23 -20 3 0 -3 9 -13 20 -10 11 -20 20 -23
20 -3 0 3 -9 13 -20z"/>
<path d="M0 1668 l0 -143 27 40 c34 50 73 160 73 208 l0 37 -50 0 -50 0 0
-142z"/>
<path d="M1748 1803 c-24 -4 -28 -9 -28 -35 0 -31 0 -31 21 -12 17 15 36 19
98 19 69 0 82 -3 113 -27 31 -24 43 -43 62 -100 4 -15 9 -16 31 -6 29 13 31
25 10 74 -14 33 -17 35 -52 32 -31 -2 -38 0 -41 17 -6 35 -31 45 -111 44 -42
-1 -88 -4 -103 -6z"/>
<path d="M2635 1791 c-44 -11 -82 -38 -105 -76 -11 -18 -20 -35 -20 -39 0 -16
32 -3 70 29 56 47 121 49 197 5 46 -26 72 -52 142 -140 l19 -25 36 19 c23 12
36 27 36 39 0 14 -4 17 -17 12 -33 -13 -40 -10 -78 35 -53 63 -128 117 -188
135 -28 8 -53 15 -56 14 -3 -1 -20 -4 -36 -8z"/>
<path d="M779 1776 c16 -19 44 -21 39 -3 -3 6 -15 14 -28 15 -21 3 -22 2 -11
-12z"/>
<path d="M658 1767 l-27 -12 75 -105 c111 -153 158 -198 256 -242 36 -17 36
-16 -34 70 -62 77 -128 177 -180 271 -19 34 -43 39 -90 18z"/>
<path d="M1509 1761 c-22 -18 -24 -28 -27 -126 l-4 -107 24 7 c106 33 138 65
138 138 0 70 -26 107 -75 107 -18 0 -43 -9 -56 -19z"/>
<path d="M4130 1766 c0 -22 27 -38 52 -31 l22 8 -23 18 c-27 22 -51 25 -51 5z"/>
<path d="M2122 1759 c-20 -8 -23 -13 -17 -41 4 -18 11 -37 15 -41 8 -9 90 32
90 45 0 8 -50 48 -59 47 -3 0 -16 -4 -29 -10z"/>
<path d="M5001 1729 c-52 -21 -96 -41 -98 -43 -10 -10 29 -67 42 -62 33 12
138 27 155 21 18 -6 20 -1 20 59 0 47 -4 66 -12 65 -7 0 -55 -18 -107 -40z"/>
<path d="M151 1724 c0 -11 3 -14 6 -6 3 7 2 16 -1 19 -3 4 -6 -2 -5 -13z"/>
<path d="M1773 1720 c-60 -36 -71 -100 -27 -157 30 -39 52 -41 126 -12 70 27
88 45 88 87 0 53 -54 102 -111 102 -26 0 -57 -8 -76 -20z"/>
<path d="M2315 1728 c-15 -8 -110 -68 -133 -84 -5 -3 27 -64 34 -64 2 0 31 14
64 30 51 26 60 34 60 58 0 15 3 37 6 50 7 24 -1 27 -31 10z"/>
<path d="M3566 1689 c-54 -28 -96 -52 -94 -55 6 -5 360 15 366 21 3 3 1 19 -4
37 -11 37 -33 45 -119 46 -41 0 -68 -9 -149 -49z"/>
<path d="M1412 1703 c-17 -45 -24 -91 -17 -114 11 -35 23 -9 30 69 7 77 4 89
-13 45z"/>
<path d="M4005 1720 c3 -5 10 -10 16 -10 5 0 9 5 9 10 0 6 -7 10 -16 10 -8 0
-12 -4 -9 -10z"/>
<path d="M3086 1704 c-10 -25 -8 -29 24 -47 35 -21 37 -16 9 29 -24 39 -25 40
-33 18z"/>
<path d="M474 1677 c0 -18 -4 -41 -8 -52 -4 -11 2 -3 14 19 18 32 20 41 8 52
-11 11 -13 8 -14 -19z"/>
<path d="M3870 1701 c0 -28 14 -41 45 -41 49 0 51 15 5 34 -47 19 -50 19 -50
7z"/>
<path d="M4200 1679 l-55 -30 63 5 c35 2 66 7 69 9 6 7 -6 47 -15 47 -4 -1
-32 -14 -62 -31z"/>
<path d="M4571 1678 c-36 -32 -49 -32 -31 1 16 30 -1 26 -31 -8 -17 -20 -29
-47 -33 -81 l-7 -51 112 57 c121 62 120 61 49 99 -23 12 -28 11 -59 -17z"/>
<path d="M147 1671 c-23 -40 -22 -44 13 -26 33 17 37 27 17 43 -10 9 -17 4
-30 -17z"/>
<path d="M2677 1684 c44 -19 59 -46 73 -131 6 -40 16 -75 21 -79 12 -7 129 46
129 58 0 18 -124 134 -162 151 -20 9 -49 17 -65 16 l-28 -1 32 -14z"/>
<path d="M328 1659 c-43 -17 -78 -36 -78 -43 0 -39 24 -126 35 -126 7 0 35 15
61 33 55 36 100 111 89 147 -8 26 -15 25 -107 -11z"/>
<path d="M4820 1645 c-14 -8 -33 -14 -43 -15 -10 0 -36 -9 -57 -20 -37 -19
-40 -24 -40 -60 0 -22 4 -40 10 -40 5 0 50 16 100 36 96 38 105 50 72 91 -15
20 -19 21 -42 8z"/>
<path d="M886 1637 c-16 -11 -13 -19 35 -87 55 -77 204 -230 226 -230 7 0 20
25 29 55 15 55 15 56 -9 98 -29 48 -93 113 -151 151 -43 28 -101 34 -130 13z"/>
<path d="M506 1613 c-20 -40 -103 -121 -145 -143 -46 -24 -40 -24 59 -1 94 23
181 50 193 61 9 8 -68 110 -83 110 -5 0 -16 -12 -24 -27z"/>
<path d="M2568 1623 c-27 -31 -45 -77 -52 -132 l-7 -54 89 6 c104 8 122 13
122 36 0 28 -30 134 -42 148 -16 20 -92 17 -110 -4z"/>
<path d="M3076 1625 c4 -8 10 -12 15 -9 11 6 2 24 -11 24 -5 0 -7 -7 -4 -15z"/>
<path d="M3996 1632 c-3 -6 -1 -14 5 -17 15 -10 25 3 12 16 -7 7 -13 7 -17 1z"/>
<path d="M4410 1632 c0 -5 7 -16 16 -23 14 -12 16 -11 13 5 -4 20 -29 35 -29
18z"/>
<path d="M2053 1603 c-35 -18 -42 -43 -19 -62 11 -9 25 -9 60 0 l46 11 -19 32
c-24 38 -28 39 -68 19z"/>
<path d="M2426 1598 c-16 -22 -21 -92 -10 -122 3 -9 17 -16 29 -16 21 0 25 6
30 48 3 26 8 55 10 65 10 48 -32 64 -59 25z"/>
<path d="M4126 1566 c-81 -24 -160 -52 -175 -63 -40 -30 -39 -65 3 -110 l36
-38 29 32 c25 26 40 33 103 42 40 7 101 16 136 22 l62 11 0 74 c0 91 11 89
-194 30z"/>
<path d="M5035 1586 c-56 -18 -70 -26 -69 -42 7 -82 17 -134 27 -134 7 0 28
-3 47 -6 34 -6 36 -4 58 39 15 31 22 62 22 106 0 33 -3 61 -7 60 -5 0 -39 -11
-78 -23z"/>
<path d="M3248 1594 c-3 -3 -4 -13 -1 -23 4 -15 16 -17 84 -17 l80 1 -28 22
c-21 17 -41 23 -79 23 -28 0 -53 -3 -56 -6z"/>
<path d="M2308 1564 c-32 -21 -50 -44 -33 -44 13 0 94 58 88 64 -9 9 -14 7
-55 -20z"/>
<path d="M163 1568 c-20 -10 -23 -19 -23 -70 l0 -58 45 0 c49 0 49 0 36 50 -5
19 -12 47 -15 63 -7 30 -10 31 -43 15z"/>
<path d="M3905 1570 c3 -5 10 -10 16 -10 5 0 9 5 9 10 0 6 -7 10 -16 10 -8 0
-12 -4 -9 -10z"/>
<path d="M3105 1554 c-46 -24 -65 -45 -65 -71 0 -22 3 -23 38 -17 54 10 101
31 108 49 7 17 -21 55 -40 55 -6 0 -24 -7 -41 -16z"/>
<path d="M4553 1532 c-134 -80 -137 -94 -12 -63 45 11 83 22 85 23 1 2 5 20 9
41 9 47 0 47 -82 -1z"/>
<path d="M3640 1553 c-54 -9 -100 -24 -100 -33 0 -18 214 -80 276 -80 25 0 34
6 44 29 17 43 9 64 -30 78 -34 11 -139 15 -190 6z"/>
<path d="M4391 1519 c-16 -53 -8 -60 18 -18 24 39 27 59 8 59 -8 0 -19 -18
-26 -41z"/>
<path d="M1595 1525 c-21 -13 -52 -27 -67 -30 l-27 -6 16 -35 c9 -19 22 -34
28 -34 7 0 42 13 78 30 l66 30 -22 34 c-12 20 -24 35 -27 35 -3 0 -23 -11 -45
-24z"/>
<path d="M42 1498 c-17 -23 -32 -45 -32 -49 0 -6 49 -19 71 -19 11 0 11 67 1
93 -6 15 -12 11 -40 -25z"/>
<path d="M1885 1507 c-254 -112 -311 -139 -323 -155 -12 -15 -17 -13 -52 27
-21 24 -44 57 -51 72 -15 38 -30 37 -19 0 7 -26 75 -162 98 -199 7 -10 25 -3
78 29 38 24 135 76 217 116 81 40 147 79 147 86 0 21 -12 57 -19 56 -3 0 -37
-15 -76 -32z"/>
<path d="M4800 1501 c-36 -15 -86 -36 -111 -45 -40 -14 -48 -22 -53 -49 -10
-55 -25 -246 -30 -390 -7 -158 -11 -155 83 -71 67 60 144 169 172 243 32 84
41 342 11 341 -4 0 -36 -13 -72 -29z"/>
<path d="M3262 1491 c-9 -5 -12 -24 -10 -55 l3 -47 55 56 54 55 -44 0 c-25 0
-51 -4 -58 -9z"/>
<path d="M2895 1481 c-6 -4 -36 -19 -68 -32 -56 -22 -58 -24 -51 -53 3 -17 8
-34 10 -37 2 -4 44 14 95 38 l90 45 -22 24 c-24 25 -39 30 -54 15z"/>
<path d="M2030 1470 c-13 -9 -13 -10 0 -10 8 0 22 5 30 10 13 9 13 10 0 10 -8
0 -22 -5 -30 -10z"/>
<path d="M2255 1470 c-4 -6 9 -29 29 -51 19 -23 51 -75 71 -117 89 -189 97
-198 181 -208 50 -6 52 -6 48 17 -14 97 -13 96 -46 103 -50 10 -75 32 -122
104 -43 66 -129 162 -146 162 -5 0 -12 -5 -15 -10z"/>
<path d="M590 1449 c-55 -19 -56 -20 -52 -54 5 -39 27 -46 72 -20 31 18 50 19
50 3 0 -7 18 -33 40 -58 l39 -45 1 58 c0 51 -4 63 -32 98 -35 44 -41 45 -118
18z"/>
<path d="M3160 1445 c-25 -13 -66 -29 -92 -34 -26 -6 -92 -34 -147 -62 -114
-58 -113 -54 -38 -132 38 -38 138 -107 158 -107 13 0 98 138 127 206 26 61 51
156 40 153 -1 0 -23 -11 -48 -24z"/>
<path d="M3445 1445 c-41 -22 -109 -90 -152 -153 l-37 -53 49 -49 c27 -28 55
-50 61 -50 7 0 56 22 111 50 118 60 233 143 233 168 0 29 -40 59 -100 75 -93
26 -132 29 -165 12z"/>
<path d="M2088 1433 c-21 -9 -38 -19 -38 -24 0 -23 56 -68 109 -88 36 -13 80
-40 110 -67 55 -50 66 -42 32 24 -25 50 -140 172 -160 171 -9 -1 -33 -8 -53
-16z"/>
<path d="M1350 1425 c0 -11 133 -226 137 -221 6 6 -30 74 -83 156 -41 64 -54
79 -54 65z"/>
<path d="M4490 1412 c-78 -11 -98 -17 -110 -35 -8 -12 -34 -42 -56 -67 -23
-25 -58 -77 -77 -116 l-36 -71 26 -24 c14 -13 57 -68 95 -122 64 -90 133 -154
156 -145 5 1 -6 37 -24 79 -46 104 -64 180 -64 266 l0 72 -37 7 c-90 16 -72
38 37 47 86 6 177 46 186 81 3 14 4 29 2 33 -1 4 -46 2 -98 -5z"/>
<path d="M396 1404 c-38 -7 -71 -15 -73 -18 -2 -2 3 -18 11 -34 19 -36 79 -88
118 -101 26 -9 30 -8 38 15 11 28 13 114 4 138 -7 18 -7 18 -98 0z"/>
<path d="M2660 1409 c-25 -4 -72 -8 -104 -8 l-59 -1 6 -50 c10 -84 20 -93 86
-87 75 6 163 44 157 66 -3 9 -8 33 -12 54 -3 20 -11 36 -18 36 -6 -1 -31 -5
-56 -10z"/>
<path d="M4284 1409 c-8 -14 11 -33 25 -25 6 4 11 14 11 22 0 16 -26 19 -36 3z"/>
<path d="M1839 1354 c-165 -80 -290 -156 -284 -172 2 -7 -4 -29 -15 -50 -32
-59 -28 -146 10 -205 67 -105 209 -160 640 -247 192 -38 172 -29 -154 70 -148
45 -283 88 -300 97 -93 47 -154 132 -142 197 22 115 229 278 374 293 28 3 52
8 52 10 0 11 -45 63 -55 63 -7 0 -63 -25 -126 -56z"/>
<path d="M2426 1388 c9 -32 46 -97 40 -73 -3 11 -8 37 -12 58 -4 23 -12 37
-21 37 -10 0 -12 -6 -7 -22z"/>
<path d="M3760 1400 c0 -13 18 -22 24 -11 3 5 -1 11 -9 15 -8 3 -15 1 -15 -4z"/>
<path d="M1255 1382 c-3 -11 12 -62 35 -119 22 -55 40 -108 40 -117 0 -9 6
-16 13 -16 23 0 86 21 92 30 7 12 -55 144 -94 198 -34 46 -75 58 -86 24z"/>
<path d="M4118 1393 c-20 -2 -42 -12 -49 -21 -11 -14 -11 -15 1 -4 31 27 36 6
14 -52 -5 -13 3 -16 48 -16 72 0 98 18 89 62 -7 36 -22 40 -103 31z"/>
<path d="M180 1367 c0 -22 23 -37 57 -37 36 0 38 2 23 31 -13 22 -80 28 -80 6z"/>
<path d="M5106 1371 c-4 -5 -29 -29 -58 -53 -49 -40 -56 -38 -19 6 14 16 14
18 1 14 -8 -2 -25 -22 -37 -44 l-22 -39 20 -20 20 -20 54 60 c31 34 54 70 55
83 0 23 -5 28 -14 13z"/>
<path d="M23 1353 c-22 -4 -23 -9 -23 -104 0 -54 2 -99 4 -99 6 0 43 115 55
168 9 44 10 44 -36 35z"/>
<path d="M787 1332 c19 -35 63 -82 63 -66 0 5 -19 29 -41 54 -36 40 -39 41
-22 12z"/>
<path d="M100 1279 c-7 -41 -27 -100 -46 -137 -34 -65 -41 -92 -26 -92 5 0 17
9 28 21 10 12 51 42 91 68 l72 48 -35 56 c-20 32 -42 57 -51 57 -9 0 -13 6
-10 13 3 8 2 19 -2 26 -4 6 -13 -20 -21 -60z"/>
<path d="M960 1345 c0 -4 25 -34 55 -68 30 -34 72 -86 92 -116 46 -66 177
-159 276 -196 38 -14 74 -25 80 -25 7 1 -16 12 -49 25 -124 47 -199 107 -294
230 -61 81 -102 122 -147 149 -7 4 -13 4 -13 1z"/>
<path d="M3770 1290 c-52 -33 -140 -86 -195 -117 -117 -66 -110 -62 -103 -68
13 -13 67 12 167 78 103 69 218 126 254 127 25 0 18 34 -8 37 -11 1 -63 -25
-115 -57z"/>
<path d="M4047 1343 c-4 -3 -7 -11 -7 -17 0 -6 5 -5 12 2 6 6 9 14 7 17 -3 3
-9 2 -12 -2z"/>
<path d="M579 1323 c-22 -3 -28 -11 -33 -39 -4 -19 -4 -38 -1 -43 6 -11 94
-31 135 -31 40 0 39 24 -2 78 -32 42 -39 44 -99 35z"/>
<path d="M1196 1282 c-15 -32 -16 -46 -7 -80 15 -54 80 -109 103 -87 11 11
-57 205 -72 205 -4 0 -15 -17 -24 -38z"/>
<path d="M3207 1275 c-24 -50 -20 -58 4 -12 11 22 19 41 17 43 -3 2 -12 -12
-21 -31z"/>
<path d="M4524 1276 c-44 -44 -43 -69 6 -117 l40 -39 0 79 c0 44 3 86 6 95 10
27 -16 18 -52 -18z"/>
<path d="M910 1265 c-6 -15 -10 -34 -10 -43 0 -38 155 -203 174 -185 22 23
-13 105 -80 184 -61 71 -72 77 -84 44z"/>
<path d="M263 1273 c-7 -2 -13 -9 -13 -15 0 -14 80 -124 120 -166 35 -36 55
-33 80 12 20 38 2 67 -69 115 -33 23 -63 45 -66 51 -6 10 -31 12 -52 3z"/>
<path d="M1933 1266 c-147 -48 -266 -222 -223 -326 16 -39 54 -58 195 -100 61
-17 173 -51 250 -75 196 -60 202 -61 210 -35 4 12 5 23 3 26 -3 2 -127 42
-277 88 -149 46 -280 91 -291 101 -37 34 -24 107 31 169 50 58 102 80 185 81
61 0 77 -4 120 -30 91 -57 139 -172 110 -268 -15 -50 -10 -59 17 -29 28 31 47
89 47 145 0 96 -62 187 -163 238 -52 27 -155 34 -214 15z"/>
<path d="M2680 1236 l-65 -23 3 -54 c2 -30 5 -55 6 -57 2 -1 33 7 71 19 37 11
77 18 90 15 12 -3 55 -35 96 -72 l73 -66 8 27 c6 24 -4 36 -100 131 -58 57
-109 104 -112 103 -3 0 -34 -11 -70 -23z"/>
<path d="M5073 1209 c-24 -27 -43 -54 -43 -58 0 -5 20 -1 45 8 44 15 45 17 45
58 0 24 -1 43 -2 42 -2 0 -22 -23 -45 -50z"/>
<path d="M3834 1225 c-75 -28 -129 -63 -145 -91 -22 -42 48 -158 112 -184 25
-11 34 -9 74 15 58 33 154 129 180 177 19 37 19 37 0 59 -48 53 -125 61 -221
24z"/>
<path d="M4119 1206 c25 -25 45 -45 46 -43 1 1 11 18 23 38 l22 36 -28 -1
c-15 0 -45 3 -67 8 l-40 8 44 -46z"/>
<path d="M750 1220 c0 -13 5 -18 15 -14 12 5 13 10 4 20 -15 19 -19 18 -19 -6z"/>
<path d="M525 1120 l0 -70 60 0 c33 0 66 4 73 9 8 4 16 27 19 50 5 39 4 41
-20 41 -15 0 -49 9 -77 20 -28 11 -52 20 -53 20 -1 0 -2 -32 -2 -70z"/>
<path d="M4929 1169 c-13 -25 -9 -30 19 -22 25 6 29 28 7 37 -9 3 -19 -3 -26
-15z"/>
<path d="M3140 1135 c-30 -44 -30 -44 -9 -55 25 -14 32 -7 48 39 24 74 6 82
-39 16z"/>
<path d="M3242 1160 c-6 -11 -12 -29 -12 -41 0 -18 4 -20 33 -14 47 10 50 18
19 48 -27 26 -28 26 -40 7z"/>
<path d="M768 1153 c-33 -14 -38 -20 -38 -49 0 -19 2 -34 5 -34 2 0 29 11 60
24 55 25 66 41 43 64 -15 15 -23 14 -70 -5z"/>
<path d="M4083 1122 c-32 -57 -105 -134 -168 -177 -52 -36 -69 -65 -45 -80 6
-3 10 3 10 14 0 26 15 34 30 16 20 -24 35 -18 94 36 49 45 136 159 136 179 0
4 -8 17 -17 29 l-18 21 -22 -38z"/>
<path d="M1966 1135 c-22 -8 -51 -22 -65 -33 -33 -24 -71 -80 -71 -103 0 -21
31 -44 73 -54 26 -7 27 -5 27 29 0 44 21 89 52 110 49 35 147 8 177 -48 23
-42 8 -50 -33 -17 -75 60 -161 29 -154 -55 l3 -39 83 -27 c46 -15 95 -29 110
-30 25 -3 28 1 36 44 17 88 -33 180 -119 219 -48 22 -67 23 -119 4z"/>
<path d="M195 1097 c-33 -18 -77 -44 -98 -59 l-38 -26 35 -37 c34 -36 37 -37
88 -30 76 9 166 35 179 51 9 11 1 25 -36 66 -26 29 -52 56 -59 60 -6 4 -39 -8
-71 -25z"/>
<path d="M4490 1113 c0 -31 29 -143 44 -171 l14 -27 11 28 c20 53 7 124 -31
164 -26 27 -38 29 -38 6z"/>
<path d="M1398 1096 c-32 -11 -58 -26 -58 -33 0 -18 51 -49 93 -57 l39 -7 -7
58 c-4 32 -8 58 -9 59 0 1 -27 -8 -58 -20z"/>
<path d="M5077 1102 c-33 -15 -37 -20 -32 -42 8 -32 52 -100 65 -100 6 0 10
34 10 80 0 44 -1 80 -2 79 -2 0 -20 -8 -41 -17z"/>
<path d="M2692 1079 c-60 -19 -63 -22 -58 -45 8 -31 47 -93 72 -116 11 -9 31
-20 47 -23 l27 -7 0 106 c0 78 -3 106 -12 105 -7 0 -42 -9 -76 -20z"/>
<path d="M944 1050 c20 -23 39 -54 42 -69 5 -22 10 -27 25 -24 31 8 22 27 -35
82 -65 61 -83 67 -32 11z"/>
<path d="M3278 1053 c-49 -19 -88 -41 -88 -47 0 -21 35 -47 73 -53 41 -6 101
19 157 67 l35 30 -25 20 c-33 26 -49 24 -152 -17z"/>
<path d="M3583 1083 c-18 -7 -16 -38 2 -53 20 -17 47 5 43 34 -3 21 -22 29
-45 19z"/>
<path d="M4951 1071 c-6 -11 -11 -40 -11 -66 0 -50 12 -62 55 -51 l24 6 -19
43 c-11 23 -20 50 -20 59 0 26 -18 31 -29 9z"/>
<path d="M2458 988 c2 -49 -2 -108 -10 -144 l-15 -60 193 -53 c105 -29 206
-54 224 -54 32 -2 34 0 51 58 10 32 17 60 16 61 -1 1 -44 14 -96 29 -52 15
-108 33 -125 40 -46 20 -87 68 -107 127 -17 51 -18 52 -71 65 -29 7 -55 12
-58 13 -3 0 -3 -37 -2 -82z"/>
<path d="M3043 1050 c-27 -11 -39 -53 -24 -86 8 -19 18 -24 45 -24 55 0 76 60
36 100 -22 22 -25 23 -57 10z"/>
<path d="M4167 1021 c-10 -23 -29 -60 -43 -82 l-26 -42 20 -20 c28 -28 45 -18
81 49 32 60 33 73 2 113 l-18 23 -16 -41z"/>
<path d="M778 1028 c-62 -36 -78 -123 -32 -177 l25 -31 62 31 c34 17 72 40 85
52 32 30 29 77 -7 116 -35 38 -78 41 -133 9z"/>
<path d="M2820 962 l0 -88 51 -13 c27 -7 52 -12 53 -10 13 14 35 69 29 70 -5
1 -19 2 -33 2 -20 2 -26 8 -31 40 -5 35 -42 87 -61 87 -4 0 -8 -40 -8 -88z"/>
<path d="M1135 1020 c-16 -7 -17 -9 -3 -9 9 -1 20 4 23 9 7 11 7 11 -20 0z"/>
<path d="M3416 960 c-79 -68 -119 -85 -182 -75 -43 6 -45 5 -40 -17 3 -13 7
-47 11 -76 5 -42 3 -54 -10 -58 -11 -5 -15 -21 -15 -61 l0 -54 52 3 51 3 27
85 c37 117 63 165 131 236 56 58 68 75 52 73 -5 0 -39 -27 -77 -59z"/>
<path d="M4730 899 c-136 -141 -136 -142 -85 -102 47 37 151 145 184 191 12
17 21 31 19 31 -2 -1 -55 -55 -118 -120z"/>
<path d="M3621 986 c-20 -22 -21 -24 -6 -60 11 -25 14 -52 9 -85 l-6 -48 58 9
c103 15 166 37 160 54 -3 9 -6 17 -6 20 0 2 -21 15 -47 28 -27 13 -69 42 -94
65 l-46 40 -22 -23z"/>
<path d="M610 989 c-19 -4 -64 -13 -100 -19 -36 -6 -102 -25 -147 -42 l-82
-31 15 -35 c8 -19 21 -62 30 -96 9 -33 18 -64 21 -69 2 -4 21 7 41 25 21 18
68 51 105 73 94 54 175 132 179 170 3 34 -8 38 -62 24z"/>
<path d="M0 940 c0 -41 3 -50 18 -50 9 0 23 -4 31 -9 12 -8 8 -15 -17 -36 -29
-24 -32 -32 -32 -83 0 -63 26 -149 50 -162 20 -11 85 12 115 40 33 31 41 89
19 137 -10 20 -56 77 -101 125 l-83 87 0 -49z"/>
<path d="M1183 963 c-18 -9 -33 -20 -33 -25 0 -14 51 -86 63 -91 13 -5 117 58
117 70 0 9 -93 63 -106 62 -5 0 -24 -8 -41 -16z"/>
<path d="M3461 912 c-52 -67 -65 -113 -27 -99 16 6 76 104 76 125 0 22 -18 13
-49 -26z"/>
<path d="M4236 917 c-3 -13 -17 -40 -31 -61 l-25 -37 27 -35 26 -35 49 48 c26
26 48 51 48 55 0 11 -70 88 -80 88 -4 0 -10 -10 -14 -23z"/>
<path d="M4855 906 c-26 -26 -27 -27 -9 -54 10 -15 27 -43 37 -62 l18 -35 -7
85 c-3 47 -8 87 -10 89 -1 2 -15 -9 -29 -23z"/>
<path d="M915 847 c-195 -121 -250 -163 -247 -183 5 -29 54 -85 92 -105 42
-23 120 -25 159 -4 40 20 99 92 111 134 15 56 9 222 -9 220 -3 0 -51 -28 -106
-62z"/>
<path d="M2984 874 c-17 -40 -14 -46 34 -62 30 -10 33 -9 47 18 21 40 19 60
-6 60 -11 0 -29 5 -40 11 -17 9 -22 5 -35 -27z"/>
<path d="M1087 860 c3 -25 9 -49 14 -54 14 -16 10 36 -6 69 -14 30 -14 30 -8
-15z"/>
<path d="M1370 880 c-14 -10 -44 -30 -67 -44 -24 -15 -43 -30 -43 -35 0 -17
86 -51 131 -51 69 0 139 53 123 94 -4 11 -104 59 -117 55 -1 0 -13 -8 -27 -19z"/>
<path d="M5017 893 c-28 -7 -16 -36 26 -58 41 -22 70 -14 75 22 4 29 -51 49
-101 36z"/>
<path d="M3122 851 c-17 -53 -15 -58 14 -64 25 -4 26 -3 20 32 -3 20 -6 44 -6
54 0 30 -16 18 -28 -22z"/>
<path d="M4004 868 c-46 -34 -52 -42 -16 -22 31 18 61 44 50 44 -3 0 -18 -10
-34 -22z"/>
<path d="M4953 825 c0 -38 2 -53 4 -32 2 20 2 52 0 70 -2 17 -4 1 -4 -38z"/>
<path d="M180 874 c0 -3 9 -19 20 -35 12 -15 30 -49 41 -75 15 -34 24 -43 32
-35 8 8 5 30 -12 81 -21 66 -24 70 -52 70 -16 0 -29 -3 -29 -6z"/>
<path d="M4043 831 c-17 -14 -19 -20 -9 -24 8 -3 33 -35 56 -70 l42 -65 34 20
c19 11 34 24 34 30 0 17 -50 75 -88 102 -45 31 -41 30 -69 7z"/>
<path d="M4687 767 l-88 -82 47 -142 c25 -79 50 -143 54 -143 16 0 64 66 92
127 16 34 32 86 35 115 6 64 -12 159 -35 187 -17 20 -19 18 -105 -62z"/>
<path d="M633 803 c-24 -14 -43 -29 -43 -35 0 -8 18 -47 26 -57 5 -5 104 60
104 68 0 4 -10 17 -22 28 l-23 21 -42 -25z"/>
<path d="M3890 820 c0 -13 28 -25 38 -16 3 4 0 11 -8 16 -20 13 -30 12 -30 0z"/>
<path d="M4316 771 c-49 -49 -49 -50 -32 -75 9 -14 20 -26 25 -26 14 0 61 59
61 76 0 26 18 14 49 -32 16 -25 32 -51 34 -57 3 -11 77 30 77 44 0 11 -57 58
-108 88 -29 17 -54 31 -55 31 -2 0 -25 -22 -51 -49z"/>
<path d="M1574 768 c4 -23 14 -67 23 -97 l15 -54 67 6 c73 7 156 29 185 50 16
12 7 17 -90 52 -60 21 -131 49 -158 62 l-49 25 7 -44z"/>
<path d="M3520 785 c0 -16 27 -32 37 -21 7 7 -16 36 -28 36 -5 0 -9 -7 -9 -15z"/>
<path d="M3765 779 c-44 -10 -94 -18 -112 -18 -17 -1 -35 -5 -38 -11 -9 -15
80 -12 154 5 124 30 121 50 -4 24z"/>
<path d="M1181 766 l-23 -24 26 -17 c24 -16 25 -18 11 -45 -24 -47 -17 -46 21
3 20 26 41 47 46 47 13 0 -34 59 -48 59 -6 1 -21 -10 -33 -23z"/>
<path d="M2955 768 c-20 -56 -35 -102 -35 -109 0 -5 21 -15 48 -22 l47 -14 12
51 c17 72 16 84 -9 91 -13 4 -31 9 -41 11 -9 3 -19 -1 -22 -8z"/>
<path d="M3958 768 c-32 -11 -32 -11 -14 -69 8 -24 17 -57 21 -72 5 -25 9 -28
32 -22 15 3 42 13 60 20 l34 14 -20 39 c-22 43 -69 102 -79 101 -4 0 -19 -5
-34 -11z"/>
<path d="M5010 747 c0 -18 8 -44 17 -57 l18 -25 6 30 c4 17 7 42 8 58 1 22 -3
27 -24 27 -22 0 -25 -4 -25 -33z"/>
<path d="M473 720 c-60 -35 -77 -59 -68 -101 4 -16 8 -29 10 -29 4 0 148 81
154 86 7 6 -27 74 -36 74 -5 0 -31 -14 -60 -30z"/>
<path d="M3076 685 c-9 -35 -16 -67 -16 -70 0 -3 18 -5 40 -5 35 0 40 3 40 23
0 50 -14 98 -30 107 -15 8 -20 1 -34 -55z"/>
<path d="M1080 680 c-13 -59 -9 -83 10 -64 5 5 13 29 19 54 8 35 7 48 -3 58
-11 11 -15 3 -26 -48z"/>
<path d="M1520 699 c0 -34 4 -49 16 -53 14 -5 15 -1 9 31 -12 63 -24 74 -25
22z"/>
<path d="M2412 691 c-23 -76 -26 -73 123 -114 73 -21 141 -40 150 -43 13 -5
15 4 15 59 0 54 -3 67 -17 71 -152 44 -234 66 -245 66 -8 0 -20 -17 -26 -39z"/>
<path d="M3847 723 c-2 -5 -2 -36 1 -70 l4 -63 40 0 40 0 -7 38 c-12 63 -32
102 -54 102 -11 0 -22 -3 -24 -7z"/>
<path d="M3360 701 c0 -9 -3 -26 -6 -37 -5 -20 0 -23 57 -33 35 -6 86 -22 115
-37 28 -14 62 -24 75 -22 22 3 24 8 27 61 3 49 1 57 -15 57 -55 1 -164 11
-205 18 -41 8 -48 7 -48 -7z"/>
<path d="M3723 697 l-53 -10 0 -55 0 -55 46 7 c26 3 57 6 70 6 23 0 24 4 24
60 0 67 4 65 -87 47z"/>
<path d="M1368 693 c-23 -4 -28 -11 -37 -52 -6 -26 -13 -78 -17 -115 l-7 -67
58 40 c35 25 70 41 87 41 32 0 33 4 17 97 -11 62 -11 63 -43 62 -17 -1 -43 -4
-58 -6z"/>
<path d="M4353 663 c-57 -60 -35 -104 32 -63 19 12 35 26 35 31 0 10 -29 70
-33 68 -1 -1 -17 -17 -34 -36z"/>
<path d="M1920 668 c0 -25 -80 -62 -198 -91 -88 -22 -89 -22 -80 -47 5 -13 11
-26 13 -28 2 -2 54 11 115 29 105 31 115 32 169 21 108 -22 212 -10 278 34
l27 17 -25 9 c-13 5 -86 24 -161 42 -132 32 -138 33 -138 14z"/>
<path d="M4974 659 c5 -28 35 -63 44 -54 5 5 -37 85 -44 85 -4 0 -4 -14 0 -31z"/>
<path d="M266 667 c-15 -11 -16 -15 -3 -25 7 -7 29 -15 47 -18 l33 -7 -19 31
c-20 35 -31 39 -58 19z"/>
<path d="M1251 640 c-56 -78 -75 -143 -75 -260 0 -88 4 -116 26 -172 23 -60
24 -70 12 -94 -16 -31 -8 -50 37 -88 36 -31 50 -32 73 -7 17 18 16 21 -8 58
-72 111 -88 271 -47 482 12 62 20 115 17 118 -2 3 -18 -14 -35 -37z"/>
<path d="M4180 652 l-34 -29 12 -54 c20 -87 23 -89 87 -54 61 33 61 32 19 118
-14 26 -30 47 -37 47 -7 0 -28 -13 -47 -28z"/>
<path d="M4517 630 c-17 -13 -35 -47 -52 -101 l-27 -80 23 -25 c34 -36 57 -39
86 -12 34 31 53 71 53 108 0 33 -37 130 -50 130 -4 0 -19 -9 -33 -20z"/>
<path d="M522 592 c-99 -58 -103 -61 -96 -89 6 -22 7 -22 37 9 46 45 111 72
158 64 l38 -6 -20 35 c-12 19 -24 35 -27 35 -4 0 -44 -22 -90 -48z"/>
<path d="M2750 581 l0 -58 123 -37 c67 -20 128 -36 135 -36 14 0 16 16 3 24
-5 4 -12 28 -16 56 -7 48 -8 50 -48 60 -23 6 -74 20 -113 31 -38 10 -73 19
-77 19 -4 0 -7 -26 -7 -59z"/>
<path d="M5070 632 c0 -13 30 -52 41 -52 5 0 9 14 9 30 0 25 -4 30 -25 30 -14
0 -25 -3 -25 -8z"/>
<path d="M4870 533 c-55 -123 -135 -207 -272 -287 -27 -15 -48 -31 -48 -36 0
-8 78 -40 97 -40 21 0 142 153 182 230 37 71 86 198 79 206 -2 1 -19 -31 -38
-73z"/>
<path d="M4038 578 c-64 -21 -66 -26 -50 -124 l7 -42 69 24 c38 12 73 27 77
31 10 10 -28 134 -39 132 -4 -1 -33 -10 -64 -21z"/>
<path d="M1531 550 c11 -47 38 -121 51 -135 5 -6 14 -3 25 7 15 16 14 22 -11
92 -24 65 -32 76 -51 76 -22 0 -22 -2 -14 -40z"/>
<path d="M3413 574 c33 -8 63 -16 68 -20 5 -3 9 -2 9 1 0 12 -70 35 -102 34
-27 -1 -22 -3 25 -15z"/>
<path d="M258 563 c-10 -3 -18 -9 -18 -14 0 -15 30 -23 43 -10 14 14 -2 29
-25 24z"/>
<path d="M340 560 c0 -5 7 -7 15 -4 8 4 15 8 15 10 0 2 -7 4 -15 4 -8 0 -15
-4 -15 -10z"/>
<path d="M2316 537 c-35 -46 -34 -73 7 -97 57 -35 111 -23 187 43 53 45 49 49
-53 66 -40 7 -82 14 -93 17 -16 4 -28 -3 -48 -29z"/>
<path d="M3101 563 l-63 -4 6 -32 c12 -60 22 -61 131 -7 l100 49 -55 -1 c-30
-1 -84 -3 -119 -5z"/>
<path d="M4383 549 c-27 -17 -31 -24 -23 -40 6 -10 15 -19 20 -19 12 0 50 50
50 66 0 19 -9 17 -47 -7z"/>
<path d="M4965 560 c3 -5 8 -10 11 -10 2 0 4 5 4 10 0 6 -5 10 -11 10 -5 0 -7
-4 -4 -10z"/>
<path d="M1123 503 c-34 -77 -36 -162 -6 -259 13 -40 32 -82 43 -95 18 -22 17
-17 -6 51 -36 105 -43 226 -17 303 11 31 18 57 16 57 -2 0 -16 -26 -30 -57z"/>
<path d="M110 543 c-49 -8 -82 -26 -91 -51 -5 -14 -7 -27 -4 -30 2 -3 40 5 82
17 43 13 86 25 96 28 18 5 18 6 1 24 -17 18 -32 21 -84 12z"/>
<path d="M996 507 c-21 -21 -37 -39 -35 -41 10 -9 71 -37 74 -34 2 2 10 21 19
42 16 37 16 41 -1 56 -17 14 -21 12 -57 -23z"/>
<path d="M3877 543 c26 -5 53 -39 53 -66 0 -11 -7 -34 -16 -53 -19 -40 -17
-45 14 -33 19 7 22 15 22 68 0 84 -4 91 -54 90 -22 -1 -31 -4 -19 -6z"/>
<path d="M3683 531 c-28 -4 -54 -9 -57 -12 -3 -3 14 -25 39 -49 l44 -43 10 24
c9 25 42 59 76 77 17 10 14 11 -20 10 -22 0 -63 -4 -92 -7z"/>
<path d="M552 515 c-66 -29 -112 -103 -112 -181 0 -76 10 -88 91 -112 40 -12
73 -21 74 -19 1 1 12 28 24 59 13 31 34 71 47 89 43 59 27 131 -36 164 -35 18
-46 18 -88 0z"/>
<path d="M3244 507 c-65 -25 -149 -71 -159 -87 -4 -7 39 -8 127 -3 130 6 134
7 176 39 24 18 49 35 55 37 9 3 9 8 -1 18 -22 24 -130 22 -198 -4z"/>
<path d="M4962 495 c-21 -46 -14 -84 24 -134 2 -2 26 11 55 29 l51 33 -54 48
c-29 27 -56 48 -59 49 -3 0 -11 -11 -17 -25z"/>
<path d="M5096 507 c-16 -12 -16 -14 3 -31 21 -19 21 -19 21 12 0 36 0 36 -24
19z"/>
<path d="M4212 451 c-83 -43 -149 -68 -250 -95 -75 -20 -143 -36 -150 -36 -7
0 -10 -5 -7 -10 13 -21 171 21 350 93 135 53 175 75 175 92 0 8 -1 15 -2 15
-2 -1 -54 -27 -116 -59z"/>
<path d="M200 458 c-80 -21 -157 -41 -172 -44 l-28 -6 0 -99 c0 -94 1 -99 21
-99 48 0 356 257 334 278 -6 6 -61 -4 -155 -30z"/>
<path d="M1413 458 c-39 -30 -54 -49 -59 -73 -7 -39 20 -100 39 -89 119 71
138 87 132 112 -12 50 -34 92 -47 91 -7 0 -37 -19 -65 -41z"/>
<path d="M1806 491 c-17 -3 64 -6 180 -6 115 0 189 3 164 7 -56 8 -305 8 -344
-1z"/>
<path d="M3807 480 c-31 -25 -34 -50 -9 -73 26 -24 38 -21 61 12 22 30 28 71
12 71 -5 0 -16 2 -23 5 -8 3 -26 -4 -41 -15z"/>
<path d="M767 451 c17 -45 15 -44 108 -16 l40 12 -35 16 c-19 8 -56 18 -82 22
l-47 7 16 -41z"/>
<path d="M2675 424 c-14 -33 -32 -72 -40 -87 -18 -35 -10 -54 45 -97 l40 -31
54 51 c61 57 79 92 74 141 -2 28 -10 37 -40 52 -20 10 -53 21 -72 24 -36 6
-36 5 -61 -53z"/>
<path d="M1684 437 c10 -42 79 -157 132 -221 29 -35 79 -81 113 -104 100 -66
221 -103 221 -67 0 18 -30 35 -62 35 -35 0 -121 44 -166 84 -22 20 -58 65 -79
99 -22 34 -59 92 -83 130 -29 46 -49 67 -62 67 -16 0 -19 -5 -14 -23z"/>
<path d="M2541 438 c-17 -45 22 -94 57 -72 21 13 28 60 11 80 -18 22 -58 18
-68 -8z"/>
<path d="M4601 405 c-19 -37 -21 -47 -11 -60 16 -19 39 -19 61 1 16 15 16 18
1 60 -9 24 -19 44 -22 44 -3 0 -16 -20 -29 -45z"/>
<path d="M1878 433 c-43 -2 -78 -7 -78 -11 0 -18 62 -112 105 -160 71 -79 82
-82 122 -38 29 32 33 42 33 93 0 80 -27 124 -72 121 -18 -1 -68 -4 -110 -5z"/>
<path d="M2095 410 c9 -17 18 -52 21 -78 5 -39 1 -57 -24 -104 l-29 -58 27 0
c35 0 50 17 50 60 0 19 7 71 15 114 8 44 14 80 13 81 -2 1 -22 5 -46 9 l-43 6
16 -30z"/>
<path d="M3585 400 c57 -63 105 -135 126 -189 12 -33 19 -41 24 -30 11 28
-101 195 -160 241 -24 18 -22 13 10 -22z"/>
<path d="M2229 373 c-18 -47 -23 -79 -23 -163 -1 -58 5 -129 12 -157 12 -44
18 -53 37 -53 22 0 22 2 17 94 -5 103 10 170 55 239 13 22 23 40 21 41 -2 1
-21 14 -44 29 -22 15 -43 27 -46 27 -4 0 -17 -26 -29 -57z"/>
<path d="M3483 410 c10 -14 23 -37 30 -52 13 -32 25 -36 34 -12 8 22 -5 40
-47 67 l-35 22 18 -25z"/>
<path d="M3740 409 c0 -16 27 -46 35 -38 2 2 -5 15 -15 29 -15 19 -20 21 -20
9z"/>
<path d="M4278 414 c-4 -3 -55 -23 -115 -44 -59 -22 -100 -39 -91 -39 30 -1
172 48 198 69 14 11 22 20 19 20 -3 0 -8 -3 -11 -6z"/>
<path d="M311 353 l-63 -57 53 -13 c91 -21 89 -22 89 57 0 39 -3 70 -7 70 -5
0 -37 -26 -72 -57z"/>
<path d="M3707 350 c35 -46 115 -195 136 -250 4 -11 6 -9 6 5 2 43 -108 236
-159 280 -13 11 -6 -4 17 -35z"/>
<path d="M1619 377 c-15 -11 -13 -20 21 -87 l38 -75 13 28 c11 24 9 34 -16 87
-16 33 -31 60 -34 60 -3 0 -13 -6 -22 -13z"/>
<path d="M2927 346 c-60 -61 -80 -106 -85 -198 -6 -102 3 -148 28 -148 18 0
20 7 20 75 0 85 24 168 71 251 16 28 29 54 29 58 0 16 -22 2 -63 -38z"/>
<path d="M3361 376 c-71 -39 -66 -166 7 -166 87 0 140 101 85 162 -19 21 -58
23 -92 4z"/>
<path d="M763 339 c-66 -51 -103 -122 -103 -194 0 -47 20 -95 39 -95 4 0 6 34
3 75 -4 66 -2 81 22 129 15 30 44 70 66 90 53 48 38 45 -27 -5z"/>
<path d="M900 367 c-19 -6 -55 -32 -80 -57 -99 -98 -90 -246 15 -266 90 -17
179 58 199 167 6 37 -8 137 -23 152 -14 14 -75 16 -111 4z"/>
<path d="M2423 370 c-27 -11 -40 -54 -22 -76 15 -18 54 -11 82 13 22 20 22 36
-1 56 -21 19 -27 20 -59 7z"/>
<path d="M4847 322 c-19 -31 -63 -90 -97 -130 l-61 -73 28 -32 c15 -18 35 -44
45 -57 12 -19 17 -22 21 -10 39 122 74 168 156 207 l59 28 -58 62 -58 61 -35
-56z"/>
<path d="M5063 354 c-24 -14 -43 -29 -43 -33 1 -3 23 -31 50 -61 l50 -55 0 88
c0 48 -3 87 -7 87 -5 -1 -27 -12 -50 -26z"/>
<path d="M1291 318 c-1 -32 3 -58 8 -58 18 0 20 16 6 66 l-13 49 -1 -57z"/>
<path d="M3098 363 c-47 -3 -60 -8 -69 -25 -10 -18 -8 -24 7 -35 19 -14 195
-73 217 -73 18 0 39 110 25 128 -10 12 -49 13 -180 5z"/>
<path d="M4262 333 c-29 -14 -89 -32 -133 -41 -84 -16 -98 -31 -62 -67 13 -14
27 -16 72 -10 66 8 211 52 211 64 0 10 -29 81 -33 80 -1 0 -26 -12 -55 -26z"/>
<path d="M4370 347 c0 -7 6 -21 13 -30 11 -16 14 -16 35 -2 34 25 28 45 -13
45 -22 0 -35 -5 -35 -13z"/>
<path d="M4470 350 c0 -5 5 -10 11 -10 5 0 7 5 4 10 -3 6 -8 10 -11 10 -2 0
-4 -4 -4 -10z"/>
<path d="M1473 290 c-40 -22 -73 -47 -73 -54 0 -21 108 -96 139 -96 10 0 33
36 57 91 10 23 8 30 -20 62 l-31 37 -72 -40z"/>
<path d="M3554 270 c-27 -41 -30 -51 -18 -61 8 -6 24 -42 35 -80 23 -75 31
-78 70 -26 34 46 32 101 -6 162 -16 27 -34 50 -40 51 -5 2 -24 -19 -41 -46z"/>
<path d="M4503 299 c-19 -12 -33 -29 -33 -40 0 -18 5 -17 62 12 45 23 58 33
47 40 -22 14 -41 11 -76 -12z"/>
<path d="M2530 264 c-49 -51 -107 -65 -171 -40 -22 9 -42 -98 -28 -149 12 -43
41 -75 68 -75 10 0 57 28 105 63 l86 62 0 60 c0 42 -6 67 -18 83 l-18 23 -24
-27z"/>
<path d="M3903 278 c-35 -5 -63 -13 -63 -17 0 -10 40 -46 67 -60 12 -6 47 -11
77 -11 l55 0 -27 47 c-15 25 -32 47 -37 48 -6 1 -38 -2 -72 -7z"/>
<path d="M2977 225 l-16 -44 50 -42 50 -42 25 24 c14 13 32 36 40 51 l14 28
-70 35 c-38 19 -71 35 -74 35 -2 0 -11 -20 -19 -45z"/>
<path d="M128 218 c-35 -20 -49 -38 -30 -38 8 0 80 59 72 59 -3 0 -22 -9 -42
-21z"/>
<path d="M4360 231 c-25 -15 -174 -51 -267 -64 -79 -11 -88 -15 -91 -35 -3
-20 1 -22 40 -22 57 0 207 32 288 62 51 18 66 28 68 46 4 23 -11 28 -38 13z"/>
<path d="M1310 220 c0 -5 7 -7 15 -4 8 4 15 8 15 10 0 2 -7 4 -15 4 -8 0 -15
-4 -15 -10z"/>
<path d="M320 211 c0 -14 67 -47 77 -38 10 11 -18 35 -49 42 -18 5 -28 3 -28
-4z"/>
<path d="M1710 169 l-25 -52 35 -28 c41 -35 48 -35 87 -6 l30 22 -51 58 -52
58 -24 -52z"/>
<path d="M458 181 c13 -11 42 -26 64 -31 21 -6 46 -14 54 -17 8 -3 14 -1 14 5
0 6 -26 19 -57 30 -32 11 -67 23 -78 27 -18 6 -17 4 3 -14z"/>
<path d="M1615 163 c-29 -43 -33 -63 -7 -40 24 22 55 77 43 77 -6 0 -22 -17
-36 -37z"/>
<path d="M4917 170 c-38 -33 -80 -119 -75 -153 2 -15 10 -2 26 41 13 35 40 81
59 103 42 46 37 51 -10 9z"/>
<path d="M5005 168 c-22 -16 -48 -39 -57 -51 -22 -28 -23 -70 -2 -88 33 -27
144 58 144 112 0 8 -10 25 -22 36 l-23 21 -40 -30z m9 -56 c2 -4 -2 -22 -11
-39 -17 -36 -43 -34 -43 3 0 29 41 57 54 36z"/>
<path d="M3176 161 c-9 -16 -27 -42 -41 -59 l-25 -30 37 -31 c21 -17 41 -31
46 -31 11 0 36 63 46 116 8 42 7 46 -16 55 -32 12 -30 13 -47 -20z"/>
<path d="M3443 176 c-18 -6 -35 -14 -38 -18 -3 -3 5 -39 19 -79 27 -80 45 -94
92 -68 31 16 32 75 4 137 -20 44 -26 47 -77 28z"/>
<path d="M4462 173 c-6 -10 -13 -37 -17 -60 -8 -52 -4 -52 79 -14 l59 27 -50
32 c-58 37 -59 38 -71 15z"/>
<path d="M181 158 c-46 -31 -68 -65 -75 -115 l-6 -43 54 0 53 0 32 65 c18 36
31 75 29 88 -4 31 -45 34 -87 5z"/>
<path d="M1347 172 c-16 -7 -15 -11 8 -57 15 -28 39 -65 54 -84 l27 -33 37 32
c36 31 50 70 25 70 -6 0 -33 18 -59 40 -48 40 -60 44 -92 32z"/>
<path d="M0 105 c0 -67 7 -77 34 -49 36 36 30 81 -16 105 -17 9 -18 5 -18 -56z"/>
<path d="M3895 146 c17 -14 35 -26 40 -26 11 1 -20 27 -50 41 -11 6 -6 -1 10
-15z"/>
<path d="M1077 120 c-13 -28 -28 -43 -52 -51 -66 -24 -30 -22 93 6 l22 5 -20
40 c-11 22 -21 40 -23 40 -1 0 -10 -18 -20 -40z"/>
<path d="M2703 114 c-35 -25 -63 -50 -63 -55 0 -14 31 -59 41 -59 5 0 29 14
54 32 46 33 52 50 37 106 -7 22 -8 22 -69 -24z"/>
<path d="M3307 153 c-4 -3 -7 -16 -7 -27 -1 -12 -9 -45 -19 -73 l-18 -53 62 0
62 0 -9 52 c-15 82 -46 126 -71 101z"/>
<path d="M3696 91 c-51 -51 -57 -62 -46 -75 7 -9 24 -16 38 -16 33 0 102 47
102 70 0 23 -20 80 -29 80 -4 0 -33 -27 -65 -59z"/>
<path d="M355 116 c-31 -14 -58 -46 -75 -91 l-10 -25 144 0 143 0 11 25 c12
25 10 27 -60 60 -92 42 -116 47 -153 31z"/>
<path d="M2952 69 c3 -55 6 -64 23 -67 15 -2 24 6 32 28 14 38 11 48 -28 79
l-30 23 3 -63z"/>
<path d="M4340 119 c-14 -6 -74 -19 -133 -29 -60 -10 -111 -20 -114 -23 -9 -9
105 -20 165 -15 71 5 116 26 120 56 4 24 -1 26 -38 11z"/>
<path d="M1636 65 c-3 -9 -18 -15 -36 -15 -27 0 -31 -3 -28 -22 3 -21 9 -23
67 -26 35 -2 68 1 72 5 4 4 -9 23 -31 40 -30 26 -39 29 -44 18z"/>
<path d="M1834 39 l-38 -39 77 0 c89 0 97 11 38 52 l-39 26 -38 -39z"/>
<path d="M4523 54 c-64 -31 -70 -54 -14 -54 34 0 42 4 60 36 32 54 31 54 -46
18z"/>
<path d="M4626 35 l-27 -35 39 0 c52 0 72 22 47 50 -24 27 -28 26 -59 -15z"/>
<path d="M3893 48 c-5 -7 -13 -21 -16 -30 -6 -16 0 -18 43 -18 50 0 60 9 42
37 -12 19 -57 26 -69 11z"/>
<path d="M4000 25 c0 -27 6 -30 29 -16 17 11 7 41 -14 41 -9 0 -15 -9 -15 -25z"/>
<path d="M5100 20 c-9 -16 -8 -20 5 -20 8 0 15 9 15 20 0 11 -2 20 -5 20 -2 0
-9 -9 -15 -20z"/>
<path d="M4890 15 c0 -8 4 -15 10 -15 5 0 7 7 4 15 -4 8 -8 15 -10 15 -2 0 -4
-7 -4 -15z"/>
<path d="M620 10 c0 -5 5 -10 11 -10 5 0 7 5 4 10 -3 6 -8 10 -11 10 -2 0 -4
-4 -4 -10z"/>
<path d="M4080 9 c0 -5 30 -9 67 -9 36 0 64 2 62 4 -10 8 -129 13 -129 5z"/>
<path d="M4310 10 c-24 -8 -24 -8 7 -9 17 -1 35 4 38 9 7 11 -9 11 -45 0z"/>
<path d="M4405 10 c-3 -5 1 -10 9 -10 9 0 16 5 16 10 0 6 -4 10 -9 10 -6 0
-13 -4 -16 -10z"/>
<path d="M1093 3 c9 -2 23 -2 30 0 6 3 -1 5 -18 5 -16 0 -22 -2 -12 -5z"/>
<path d="M1518 3 c7 -3 16 -2 19 1 4 3 -2 6 -13 5 -11 0 -14 -3 -6 -6z"/>
</g>
</svg>